<svg id="Layer_1" data-name="Layer 1" xmlns="http://www.w3.org/2000/svg" viewBox="0 0 1024 1024"><defs><style>.cls-1{fill:#226db4;}.cls-2{fill:#089949;}</style></defs><title>Assist</title><path class="cls-1" d="M360.42,1024a109.27,109.27,0,0,1-77.78-32.22L32.22,741.36a110,110,0,0,1,0-155.57L282.64,335.37a110.13,110.13,0,0,1,155.57,0l94.11,94.11a30,30,0,1,1-42.43,42.43L395.78,377.8a50,50,0,0,0-70.71,0L74.65,628.22a50,50,0,0,0,0,70.71L325.07,949.36a50,50,0,0,0,70.71,0l94.11-94.11a30,30,0,0,1,42.43,42.42l-94.11,94.11A109.28,109.28,0,0,1,360.42,1024Z"/><path class="cls-2" d="M663.58,1024a109.28,109.28,0,0,1-77.79-32.22L335.37,741.36a110,110,0,0,1,0-155.57L585.79,335.37a110,110,0,0,1,155.57,0L991.78,585.79a110,110,0,0,1,0,155.57L741.36,991.78A109.27,109.27,0,0,1,663.58,1024Zm0-660.85a49.65,49.65,0,0,0-35.36,14.65L377.8,628.22a50,50,0,0,0,0,70.71L628.22,949.36a50,50,0,0,0,70.71,0L949.36,698.93a50,50,0,0,0,0-70.71L698.93,377.8A49.64,49.64,0,0,0,663.58,363.15Z"/><path class="cls-2" d="M512,263.3c-72.59,0-131.65-59.06-131.65-131.65S439.41,0,512,0,643.65,59.06,643.65,131.65,584.59,263.3,512,263.3ZM512,60a71.65,71.65,0,1,0,71.65,71.65A71.73,71.73,0,0,0,512,60Z"/></svg>