<svg id="Layer_1" data-name="Layer 1" xmlns="http://www.w3.org/2000/svg" viewBox="0 0 1024 1024"><defs><style>.cls-2{fill:#e42528;}</style></defs><title>Expense_logo</title><g class="cls-1"><path class="cls-2" d="M845.62,1007.29c-78.84,0-155.48-28.12-221.64-81.33a16,16,0,0,0-21.35,1.14l-58,58a75.55,75.55,0,0,1-106.73,0l-56-56a16,16,0,0,0-22.63,0L302.6,985.68a73.73,73.73,0,0,1-107-2.9A764.8,764.8,0,0,1,89.9,111.91a179.71,179.71,0,0,1,158.78-95.2H805.35c56.35,0,109.46,37.37,149.55,105.22,36.32,61.47,60.71,145.8,68.68,237.44a90.05,90.05,0,0,1-89.66,98H644.81c.69,16.84,2,33.53,3.79,49.9,0,.41.08.82.11,1.23a617.74,617.74,0,0,0,27.93,146.29c14.47,44.8,33.83,86,57.56,122.53,23.34,35.91,50.31,66.35,80.16,90.49s62,41.44,95.5,51.37a42.58,42.58,0,0,1-4.49,82.73A333.48,333.48,0,0,1,845.62,1007.29ZM248.68,76.71a119.81,119.81,0,0,0-105.86,63.47,704.42,704.42,0,0,0,97.43,802.53,13.72,13.72,0,0,0,19.93.54l56.58-56.58a76.09,76.09,0,0,1,107.48,0l56.05,56.05a15.48,15.48,0,0,0,21.88,0l58-58a75.87,75.87,0,0,1,101.37-5.47c48.9,39.32,104.23,62.27,161.25,67.11a364.1,364.1,0,0,1-46.19-31.89c-34.76-28.11-66-63.25-92.75-104.45-54.26-83.49-87.1-186.07-95-296.69a781,781,0,0,1-4.7-86c0-106.25,21-206.61,59.18-282.6,13.37-26.62,28.41-49.39,44.77-68ZM644.8,397.33H933.92a30.05,30.05,0,0,0,29.88-32.76c-7.2-82.89-28.71-158.22-60.55-212.12-28.86-48.84-63.63-75.74-97.9-75.74-18.54,0-37.07,7.69-55.08,22.86-19.35,16.3-37.78,41.23-53.27,72.09C666.48,232.42,648.26,311.65,644.8,397.33Z"/></g><g class="cls-1"><path class="cls-2" d="M434.18,457.33H211.72a30,30,0,1,1,0-60H434.18a30,30,0,0,1,0,60Z"/></g><g class="cls-1"><path class="cls-2" d="M325.5,607.38H218.05a30,30,0,0,1,0-60H325.5a30,30,0,0,1,0,60Z"/></g><g class="cls-1"><path class="cls-2" d="M448.18,307.38H238.72a30,30,0,0,1,0-60H448.18a30,30,0,0,1,0,60Z"/></g></svg>