<?xml version="1.0" encoding="utf-8"?>
<!-- Generator: Adobe Illustrator 22.1.0, SVG Export Plug-In . SVG Version: 6.00 Build 0)  -->
<svg version="1.1" id="Layer_1" xmlns="http://www.w3.org/2000/svg" xmlns:xlink="http://www.w3.org/1999/xlink" x="0px" y="0px"
	 viewBox="0 0 1024 1024" style="enable-background:new 0 0 1024 1024;" xml:space="preserve">
<style type="text/css">
	.st0{fill:#226DB4;}
	.st1{fill:none;stroke:#000000;stroke-miterlimit:10;}
	.st2{fill:none;stroke:#226EB3;stroke-width:60;stroke-linecap:round;stroke-linejoin:round;stroke-miterlimit:10;}
	.st3{opacity:0.9;fill:none;stroke:#226DB4;stroke-width:60;stroke-linecap:round;stroke-linejoin:round;stroke-miterlimit:10;}
	.st4{opacity:0.9;fill:none;stroke:#226EB3;stroke-width:60;stroke-linecap:round;stroke-linejoin:round;stroke-miterlimit:10;}
	.st5{fill:none;stroke:#FFFFFF;stroke-width:60;stroke-linecap:round;stroke-linejoin:round;stroke-miterlimit:10;}

	.st7{display:none;}
	
		.st8{display:inline;opacity:0.9;fill:none;stroke:#226DB4;stroke-width:60.0157;stroke-linecap:round;stroke-linejoin:round;stroke-miterlimit:10;}
</style>
<g class="st6">
	<path class="st0" d="M490,400.8h140c16.6,0,30-13.4,30-30v-140c0-16.6-13.4-30-30-30H490c-16.6,0-30,13.4-30,30v140
		C460,387.4,473.4,400.8,490,400.8z M520,260.7h80v80h-80V260.7z"/>
	<path class="st0" d="M994.1,0H450c-93.8,0-170,76.3-170,170v110.6H169.3c-93.4,0-169.4,76-169.4,169.4v404.6
		c0,93.4,76,169.4,169.4,169.4h0.6h0.6h583.5c72.1,0,140-28.1,191-79.1s79.1-118.8,79.1-191V30C1024.1,13.4,1010.7,0,994.1,0z
		 M169.3,340.6h110.6v180.2H59.9V450C59.9,389.7,109,340.6,169.3,340.6z M169.9,964h-0.6C109,964,59.9,914.9,59.9,854.6V580.8h220.1
		v273.8c0,60.3-49.1,109.4-109.4,109.4H169.9z M964.1,754c0,115.8-94.2,210.1-210.1,210.1H299.8c25-29.5,40.2-67.7,40.2-109.4v-544
		V170c0-60.7,49.4-110,110-110h514.1V754z"/>
	<path class="st0" d="M490,580.8h323.5c16.6,0,30-13.4,30-30s-13.4-30-30-30H490c-16.6,0-30,13.4-30,30S473.4,580.8,490,580.8z"/>
	<path class="st0" d="M490,760.9h323.5c16.6,0,30-13.4,30-30s-13.4-30-30-30H490c-16.6,0-30,13.4-30,30S473.4,760.9,490,760.9z"/>
</g>
<g class="st7">
	<path class="st8" d="M548.5,942h-1.2c-77,0-139.4-62.4-139.4-139.4V398c0-77,62.4-139.4,139.4-139.4h140.7v544
		C687.9,879.6,625.5,942,548.5,942z"/>
	<rect x="868" y="178.7" class="st8" width="140" height="140"/>
	<path class="st8" d="M687.9,258.6V118c0-77.3,62.7-140,140-140h544.1v724c0,132.6-107.5,240.1-240.1,240.1H547.9"/>
	<line class="st8" x1="868" y1="498.8" x2="1191.5" y2="498.8"/>
	<line class="st8" x1="407.9" y1="498.8" x2="687.9" y2="498.8"/>
	<line class="st8" x1="868" y1="678.9" x2="1191.5" y2="678.9"/>
</g>
</svg>
