<svg id="Layer_1" data-name="Layer 1" xmlns="http://www.w3.org/2000/svg" viewBox="0 0 1024 1024"><defs><style>.cls-1{opacity:1;}.cls-2{fill:#089949;}.cls-3{fill:#f9b21d;}.cls-4{fill:#e42527;}</style></defs><title>Lens</title><g class="cls-1"><path class="cls-2" d="M831.7,757.63a30,30,0,0,1-21.21-51.21L934.22,582.68a100.09,100.09,0,0,0,0-141.39L828.6,335.67A30,30,0,0,1,871,293.24L976.65,398.86c62.37,62.38,62.37,163.87,0,226.25L852.92,748.85A29.91,29.91,0,0,1,831.7,757.63Z"/></g><g class="cls-1"><path class="cls-2" d="M174.58,739.87a29.9,29.9,0,0,1-21.21-8.78l-106-106C-15,562.72-15,461.25,47.29,398.88l123.88-124a30,30,0,1,1,42.45,42.4l-123.87,124a100.11,100.11,0,0,0,0,141.36l106,106a30,30,0,0,1-21.22,51.21Z"/></g><g class="cls-1"><path class="cls-3" d="M512,626.36A114.37,114.37,0,1,1,626.39,512,114.5,114.5,0,0,1,512,626.36Zm0-168.74A54.37,54.37,0,1,0,566.39,512,54.43,54.43,0,0,0,512,457.62Z"/></g><g class="cls-1"><path class="cls-4" d="M512,776.38a263.72,263.72,0,0,1-146.29-44,30,30,0,0,1,33.18-50,203.83,203.83,0,0,0,113.11,34c113,0,204.88-91.91,204.88-204.89V261.23a89.42,89.42,0,0,0-26.35-63.63L582.74,89.78A99.33,99.33,0,0,0,512.05,60.5h0a99.31,99.31,0,0,0-70.7,29.3L298.71,232.53a30,30,0,0,1-42.45-42.41L398.9,47.39A158.94,158.94,0,0,1,512,.5h0A158.92,158.92,0,0,1,625.17,47.36L733,155.18A149,149,0,0,1,776.9,261.23v251A264.88,264.88,0,0,1,512,776.38Z"/></g><g class="cls-1"><path class="cls-4" d="M512,1023.5a158.88,158.88,0,0,1-113.11-46.86L291.07,868.8a149,149,0,0,1-43.92-106v-251a264.9,264.9,0,0,1,411.62-219.8,30,30,0,1,1-33.28,49.92A203.9,203.9,0,0,0,512,307.59c-113,0-204.87,91.92-204.87,204.9V762.75a89.35,89.35,0,0,0,26.35,63.62L441.33,934.22a100,100,0,0,0,141.38,0l143-143a30,30,0,0,1,42.43,42.43l-143,143A158.91,158.91,0,0,1,512,1023.5Z"/></g></svg>