<?xml version="1.0" encoding="utf-8"?>
<!-- Generator: Adobe Illustrator 22.0.1, SVG Export Plug-In . SVG Version: 6.00 Build 0)  -->
<svg version="1.1" id="Layer_1" xmlns="http://www.w3.org/2000/svg" xmlns:xlink="http://www.w3.org/1999/xlink" x="0px" y="0px"
	 viewBox="0 0 1024 1024" style="enable-background:new 0 0 1024 1024;" xml:space="preserve">
<style type="text/css">
	.st1{fill:#E32327;}
	.st2{fill:#049849;}
	.st3{fill:#216DB3;}
	.st4{fill:#F8B11C;}
</style>
<g>
	<g class="st0">
		<path class="st1" d="M648.6,781.3c-3.5,0-7.1-0.6-10.6-2l-160.6-61.1c-15.5-5.9-23.2-23.2-17.4-38.7c5.9-15.5,23.2-23.2,38.7-17.4
			l160.7,61.1c15.5,5.9,23.2,23.2,17.4,38.7C672.1,774,660.7,781.3,648.6,781.3z"/>
	</g>
	<g class="st0">
		<path class="st1" d="M815,1022.6c-114.7,0-208-93.3-208-208s93.3-208,208-208s208,93.3,208,208S929.7,1022.6,815,1022.6z
			 M815,666.6c-81.6,0-148,66.4-148,148s66.4,148,148,148s148-66.4,148-148S896.7,666.6,815,666.6z"/>
	</g>
	<g class="st0">
		<path class="st1" d="M981.4,907.9c-3.5,0-7.1-0.6-10.6-2l-166.4-63.3c-11.6-4.4-19.3-15.6-19.3-28V638.5c0-16.5,13.4-30,30-30
			s30,13.4,30,30V794l147.1,56c15.5,5.9,23.2,23.2,17.4,38.7C1004.9,900.6,993.5,907.9,981.4,907.9z"/>
	</g>
	<g class="st0">
		<path class="st2" d="M458.5,497.8c-9.3,0-18.4-4.3-24.3-12.4c-9.7-13.4-6.7-32.1,6.7-41.8l143.8-104.1c13.4-9.7,32.1-6.7,41.8,6.7
			c9.7,13.4,6.7,32.1-6.7,41.8L476.1,492.1C470.8,495.9,464.6,497.8,458.5,497.8z"/>
	</g>
	<g class="st0">
		<path class="st2" d="M267.1,872.4c-71.1,0-137.9-27.7-188.2-78C28.7,744.2,1,677.4,1,606.3s27.7-137.9,78-188.2
			c50.3-50.3,117.1-78,188.2-78s137.9,27.7,188.2,78c50.3,50.3,78,117.1,78,188.2s-27.7,137.9-78,188.2
			C405.1,844.8,338.2,872.4,267.1,872.4z M267.1,400.1c-113.7,0-206.2,92.5-206.2,206.2c0,113.7,92.5,206.2,206.2,206.2
			S473.4,720,473.4,606.3C473.4,492.6,380.9,400.1,267.1,400.1z"/>
	</g>
	<g class="st0">
		<path class="st2" d="M201.7,683.2c-9.3,0-18.5-4.3-24.4-12.5c-9.6-13.4-6.6-32.2,6.9-41.8l53-38v-97.1c0-16.5,13.4-30,30-30
			s30,13.4,30,30v112.5c0,9.7-4.7,18.7-12.5,24.4l-65.5,47C213.8,681.4,207.7,683.2,201.7,683.2z"/>
	</g>
	<g class="st0">
		<path class="st3" d="M729.7,458.8c-103.2,0-187.2-84-187.2-187.2s84-187.2,187.2-187.2s187.2,84,187.2,187.2
			S833,458.8,729.7,458.8z M729.7,144.3c-70.2,0-127.3,57.1-127.3,127.3s57.1,127.3,127.3,127.3S857,341.7,857,271.6
			S799.9,144.3,729.7,144.3z"/>
	</g>
	<g class="st0">
		<path class="st3" d="M582.7,245.6c-3.5,0-7.1-0.6-10.6-2l-165.5-62.9c-15.5-5.9-23.2-23.2-17.4-38.7c5.9-15.5,23.2-23.2,38.7-17.4
			l165.5,62.9c15.5,5.9,23.2,23.2,17.4,38.7C606.2,238.3,594.8,245.6,582.7,245.6z"/>
	</g>
	<g class="st0">
		<path class="st4" d="M333.4,240.5c-65.9,0-119.6-53.6-119.6-119.6S267.5,1.4,333.4,1.4S453,55,453,120.9S399.3,240.5,333.4,240.5z
			 M333.4,61.3c-32.9,0-59.6,26.7-59.6,59.6s26.7,59.6,59.6,59.6s59.6-26.7,59.6-59.6S366.3,61.3,333.4,61.3z"/>
	</g>
</g>
</svg>
