<svg id="Layer_1" data-name="Layer 1" xmlns="http://www.w3.org/2000/svg" viewBox="0 0 1024 1024"><defs><style>.cls-1{fill:#089949;}.cls-2{fill:#226db4;}</style></defs><path class="cls-1" d="M512,532a40,40,0,0,1-20-5.34h0L101,300.89a40,40,0,0,1,0-69.29L492,5.86a40.12,40.12,0,0,1,40,0L923,231.6a40,40,0,0,1,0,69.29L532,526.63A40,40,0,0,1,512,532Zm10-57.33,0,0ZM161,266.25,512,468.9,863,266.25,512,63.59Z"/><path class="cls-2" d="M582.19,1023.47a40,40,0,0,1-40-40V613.25a40.11,40.11,0,0,1,20-34.64L882.82,393.49a40,40,0,0,1,60,34.65V626.22a40.1,40.1,0,0,1-20,34.64L793.75,735.39v149a40.1,40.1,0,0,1-20,34.64l-171.57,99.06A40,40,0,0,1,582.19,1023.47Zm20-398.67V948.85l131.56-76v-149a40.13,40.13,0,0,1,20-34.64h0l129.07-74.52V462.78Z"/><path class="cls-2" d="M441.81,1023.47a40,40,0,0,1-20-5.34l-171.55-99a40.11,40.11,0,0,1-20-34.64V735.39L101.18,660.86a40.11,40.11,0,0,1-20-34.64V428.14a40,40,0,0,1,60-34.65L461.81,578.61a40.13,40.13,0,0,1,20,34.64V983.49a40,40,0,0,1-40,40ZM290.26,872.89l131.55,76V624.8l-280.63-162v151.9L270.26,689.2a40.14,40.14,0,0,1,20,34.64Zm-50-131.73h0Z"/></svg>