<?xml version="1.0" encoding="utf-8"?>
<!-- Generator: Adobe Illustrator 24.1.0, SVG Export Plug-In . SVG Version: 6.00 Build 0)  -->
<svg version="1.1" id="Layer_1" xmlns="http://www.w3.org/2000/svg" xmlns:xlink="http://www.w3.org/1999/xlink" x="0px" y="0px"
	 viewBox="0 0 1024 1024" style="enable-background:new 0 0 1024 1024;" xml:space="preserve">
<style type="text/css">
	.st0{fill:#E42527;}
	.st1{fill:none;stroke:#226DB4;stroke-width:60;stroke-linecap:round;stroke-linejoin:round;stroke-miterlimit:10;}
	.st2{fill:none;stroke:#E42527;stroke-width:60;stroke-linecap:round;stroke-linejoin:round;stroke-miterlimit:10;}
	.st3{fill:#226DB4;}
	.st4{fill:#009849;}
	.st5{fill:#F9B21D;}
	.st6{fill:none;stroke:#000000;stroke-linecap:round;stroke-linejoin:round;stroke-miterlimit:10;}
	.st7{fill:#FFFFFF;}
	.st8{fill:none;stroke:#FFFFFF;stroke-width:60;stroke-linecap:round;stroke-linejoin:round;stroke-miterlimit:10;}
</style>
<g>
	<g>
		<path class="st3" d="M119.9,968.5c-21.9,0-43.6-6-63-18C21.3,928.4,0,890.3,0,848.4V175.6c0-41.9,21.3-80.1,56.9-102.1
			s79.3-24,116.8-5.3l230,115c14.8,7.4,20.8,25.4,13.4,40.2c-7.4,14.8-25.4,20.8-40.2,13.4l-230-115c-18.7-9.4-40.6-8.4-58.4,2.6
			c-17.8,11-28.5,30.1-28.5,51v672.8c0,20.9,10.6,40,28.5,51c17.8,11,39.6,12,58.4,2.6l511.8-255.9c20.5-10.2,33.2-30.8,33.2-53.7
			v-161c0-22.9-12.7-43.4-33.2-53.7l-160-80c-14.8-7.4-20.8-25.4-13.4-40.2c7.4-14.8,25.4-20.8,40.2-13.4l160,80
			c19.9,10,36.7,25.3,48.4,44.2c11.7,19,17.9,40.8,17.9,63.1v161c0,22.3-6.2,44.1-17.9,63.1c-11.7,19-28.5,34.3-48.4,44.2
			L173.7,955.7C156.6,964.2,138.2,968.5,119.9,968.5z"/>
	</g>
	<g>
		<path class="st0" d="M904.1,968.5c-18.3,0-36.7-4.2-53.7-12.8L619.6,840.3c-14.8-7.4-20.8-25.4-13.4-40.2
			c7.4-14.8,25.4-20.8,40.2-13.4L877.2,902c18.7,9.4,40.6,8.4,58.4-2.6c17.8-11,28.5-30.1,28.5-51V175.6c0-20.9-10.6-40-28.5-51
			c-17.8-11-39.6-12-58.4-2.6L365.4,377.8c-20.5,10.2-33.2,30.8-33.2,53.7v161c0,22.9,12.7,43.4,33.2,53.7l160,80
			c14.8,7.4,20.8,25.4,13.4,40.2c-7.4,14.8-25.4,20.8-40.2,13.4l-160-80c-19.9-10-36.7-25.3-48.4-44.2c-11.7-19-17.9-40.8-17.9-63.1
			v-161c0-22.3,6.2-44.1,17.9-63.1c11.7-19,28.5-34.3,48.4-44.2L850.3,68.3c37.5-18.7,81.1-16.8,116.8,5.3
			c35.6,22,56.9,60.2,56.9,102.1v672.8c0,41.9-21.3,80.1-56.9,102.1C947.7,962.4,925.9,968.5,904.1,968.5z"/>
	</g>
	<g>
		<polygon class="st3" points="512.1,719.4 444.9,753 511.9,786.6 579,753 		"/>
	</g>
</g>
</svg>
