<svg xmlns="http://www.w3.org/2000/svg" viewBox="0 0 1024 1024"><path d="M956.8 266.5c-.1-6.7-3.7-13.6-10-17.1L522 4.2a19.87 19.87 0 0 0-20 0L77.2 249.4c-5.8 3.4-10.1 10-10 17.3v490.5c0 7.2 3.8 13.8 10 17.3L502 1019.8c5.4 3.1 13.1 4 20 0l424.8-245.2c6.2-3.6 10-10.2 10-17.3V266.8v-.3zM512 44.6l384.8 222.2-214.9 124-125.7-72.6c14.9-12.6 24.3-31.5 24.3-52.5 0-38-30.9-68.8-68.8-68.8s-68.8 30.9-68.8 68.8c0 21.1 9.6 40 24.6 52.7l-125.3 72.4-215-124L512 44.6zM283.2 608.2h0c4.9-2.8 10.3-4.2 15.6-4.2 10.8 0 21.2 5.6 27 15.5 8.6 14.9 3.5 34-11.4 42.6s-34 3.5-42.6-11.3c-4.2-7.2-5.3-15.6-3.1-23.6 2.2-8.1 7.3-14.8 14.5-19zm228.5-311.3c-17.2 0-31.2-14-31.2-31.2s14-31.2 31.2-31.2 31.2 14 31.2 31.2-14 31.2-31.2 31.2zm.3 42l129.9 75-129.9 75-129.9-75 129.9-75zm20 184.6l129.9-75v150l-129.9 75v-150zM107.2 301.4l214.9 124.1v144.9c-1.8-.7-3.7-1.2-5.5-1.7-17.8-4.7-36.3-2.3-52.2 6.9h0c-15.9 9.2-27.3 24.1-32 41.8s-2.3 36.3 6.9 52.2 24.1 27.3 41.8 32c5.9 1.6 11.9 2.3 17.8 2.3 12 0 23.8-3.1 34.4-9.3 18.2-10.5 29.8-28.2 33.2-47.4l61.6 35.6a20.03 20.03 0 0 0 10 2.7 19.97 19.97 0 0 0 17.3-10c5.5-9.6 2.2-21.8-7.3-27.3L362 598.5v-150l129.9 75v444.3L107.2 745.7V301.4zM532 967.9V719.8l159.9-92.3c6.2-3.6 10-10.2 10-17.3V425.5l214.9-124.1v444.3L532 967.9z" fill="#e42527"/></svg>