<?xml version="1.0" encoding="utf-8"?>
<!-- Generator: Adobe Illustrator 22.0.1, SVG Export Plug-In . SVG Version: 6.00 Build 0)  -->
<svg version="1.1" id="Layer_1" xmlns="http://www.w3.org/2000/svg" xmlns:xlink="http://www.w3.org/1999/xlink" x="0px" y="0px"
	 viewBox="0 0 1024 1024" style="enable-background:new 0 0 1024 1024;" xml:space="preserve">
<style type="text/css">
	.st0{display:none;opacity:1;}
	.st1{display:inline;opacity:1;}
	.st2{fill:#226DB4;}
	.st3{opacity:1;enable-background:new    ;}
</style>
<g class="st0">
	<g class="st1">
		<path class="st2" d="M323.1,361.2H211.9c-16.5,0-29.9-13.4-29.9-29.9s13.4-29.9,29.9-29.9h111.2c16.5,0,29.9,13.4,29.9,29.9
			S339.6,361.2,323.1,361.2z"/>
	</g>
	<g class="st1">
		<path class="st2" d="M795.3,962H91.8C42.3,962,2,921.7,2,872.2V151.8C2,102.3,42.3,62,91.8,62h762.9c16.5,0,29.9,13.4,29.9,29.9
			s-13.4,29.9-29.9,29.9H91.8c-16.5,0-29.9,13.4-29.9,29.9v720.4c0,16.5,13.4,29.9,29.9,29.9h703.5c16.5,0,29.9-13.4,29.9-29.9
			V568.5c0-16.5,13.4-29.9,29.9-29.9S885,552,885,568.5v303.7C885,921.7,844.8,962,795.3,962z"/>
	</g>
	<g class="st1">
		<path class="st2" d="M210.9,543.2c-16.5,0-29.9-13.4-29.9-29.9s13.4-29.9,29.9-30l284.6-0.3l0,0c16.5,0,29.9,13.4,29.9,29.9
			c0,16.5-13.4,29.9-29.9,30L210.9,543.2L210.9,543.2z"/>
	</g>
	<g class="st1">
		<path class="st2" d="M210.9,722.1c-16.5,0-29.9-13.4-29.9-29.9s13.4-29.9,29.9-30l284.6-0.3l0,0c16.5,0,29.9,13.4,29.9,29.9
			s-13.4,29.9-29.9,30L210.9,722.1L210.9,722.1z"/>
	</g>
	<g class="st1">
		<path class="st2" d="M992.1,544.5c-5,0-9.9-1.2-14.4-3.7l-166.5-91.6c-0.1-0.1-0.2-0.1-0.3-0.2l-162.4-91.6
			c-9.4-5.3-15.2-15.2-15.2-25.9c0-10.8,5.7-20.7,15-26.1l166.4-95.6L977,114.2c9.3-5.5,20.7-5.5,30-0.2s15.1,15.2,15.1,26v374.6
			c0,10.6-5.6,20.4-14.7,25.8C1002.6,543.2,997.3,544.5,992.1,544.5z M840.1,396.9L962.2,464V192.3l-117.3,69.1
			c-0.1,0.1-0.2,0.1-0.3,0.2l-121,69.5L840.1,396.9z"/>
	</g>
</g>
<g class="st3">
	<path class="st2" d="M323.1,361.3H211.9c-16.6,0-30-13.4-30-30s13.4-30,30-30h111.2c16.6,0,30,13.4,30,30S339.7,361.3,323.1,361.3z
		"/>
</g>
<g class="st3">
	<path class="st2" d="M795.2,961.9H91.8C42.3,961.9,2,921.6,2,872.1V151.9c0-49.5,40.3-89.8,89.8-89.8h762.9c16.6,0,30,13.4,30,30
		s-13.4,30-30,30H91.8c-16.4,0-29.8,13.4-29.8,29.8v720.2c0,16.4,13.4,29.8,29.8,29.8h703.4c16.4,0,29.8-13.4,29.8-29.8V568.5
		c0-16.6,13.4-30,30-30s30,13.4,30,30v303.6C885,921.6,844.7,961.9,795.2,961.9z"/>
</g>
<g class="st3">
	<path class="st2" d="M210.9,543.3c-16.6,0-30-13.4-30-30c0-16.6,13.4-30,30-30l284.6-0.3l0,0c16.6,0,30,13.4,30,30
		c0,16.6-13.4,30-30,30L210.9,543.3L210.9,543.3z"/>
</g>
<g class="st3">
	<path class="st2" d="M210.9,722.1c-16.6,0-30-13.4-30-30s13.4-30,30-30l284.6-0.3l0,0c16.6,0,30,13.4,30,30s-13.4,30-30,30
		L210.9,722.1L210.9,722.1z"/>
</g>
<g class="st3">
	<path class="st2" d="M992,544.6c-5,0-10-1.2-14.5-3.7L811,449.3c-0.1,0-0.2-0.1-0.3-0.1l-162.4-91.5c-9.4-5.3-15.2-15.2-15.3-26
		c0-10.8,5.7-20.8,15-26.1L814.4,210l162.3-95.6c9.3-5.5,20.8-5.5,30.1-0.2s15.1,15.3,15.1,26v374.5c0,10.6-5.6,20.4-14.7,25.8
		C1002.6,543.2,997.3,544.6,992,544.6z M840.1,396.8L962,463.9V192.6l-117.2,69c-0.1,0.1-0.2,0.1-0.3,0.2l-120.8,69.4L840.1,396.8z"
		/>
</g>
</svg>
