<?xml version="1.0" encoding="utf-8"?>
<!-- Generator: Adobe Illustrator 23.0.3, SVG Export Plug-In . SVG Version: 6.00 Build 0)  -->
<svg version="1.1" id="Layer_1" xmlns="http://www.w3.org/2000/svg" xmlns:xlink="http://www.w3.org/1999/xlink" x="0px" y="0px"
	 viewBox="0 0 1024 1024" style="enable-background:new 0 0 1024 1024;" xml:space="preserve">
<style type="text/css">
	.st0{opacity:0.9;}
	.st1{fill:#E42527;}
</style>
<title>Apptics_final</title>
<g class="st0">
	<path class="st1" d="M512,1023.5c-140.5,0.2-274.9-57.7-371.4-159.8c-12.3-13-19.1-30.2-19-48V676.1c0-38.7,31.3-70,70-70l0,0h70.8
		c38.6,0,70,31.4,70,70v139.8c0,16.6-13.4,30-30,30s-30-13.4-30-30V676.1c0-5.5-4.5-10-10-10h-70.9c-5.5,0-10,4.5-10,10v139.5
		c0,2.5,0.9,4.9,2.6,6.7c171.5,181.4,457.6,189.3,639,17.8s189.3-457.6,17.8-639s-457.6-189.3-639-17.8
		C111.6,268.9,60.4,387.7,60.5,512c0,20.2,1.3,40.4,4,60.4c2.2,16.4-9.3,31.5-25.8,33.7c-16.4,2.2-31.5-9.3-33.7-25.8
		c-3-22.6-4.5-45.5-4.5-68.3C0.7,229.4,229.9,0.5,512.5,0.7c205.4,0.1,390.8,123.1,470.8,312.2c110,260.1-11.6,560.2-271.7,670.2
		C648.4,1009.8,580.6,1023.5,512,1023.5z"/>
	<path class="st1" d="M302.3,845.9c-16.6,0-30-13.4-30-30V474.6c0-38.6,31.4-70,70-70h70.8c38.6,0,70,31.4,70,70v340.8
		c0,16.6-13.4,30-30,30s-30-13.4-30-30V474.6c0-5.5-4.5-10-10-10h-70.8c-5.5,0-10,4.5-10,10v341.3
		C332.3,832.5,318.8,845.9,302.3,845.9z"/>
	<path class="st1" d="M604,845.9c-16.6,0-30-13.4-30-30V313.6c0-5.5-4.5-10-10-10h-70.9c-5.5,0-10,4.5-10,10v502.3
		c0,16.6-13.4,30-30,30s-30-13.4-30-30V313.6c0-38.6,31.4-70,70-70H564c38.6,0,70,31.4,70,70v502.3C634,832.5,620.6,845.9,604,845.9
		z"/>
</g>
</svg>
