<?xml version="1.0" encoding="utf-8"?>
<!-- Generator: Adobe Illustrator 23.0.1, SVG Export Plug-In . SVG Version: 6.00 Build 0)  -->
<svg version="1.1" id="Layer_1" xmlns="http://www.w3.org/2000/svg" xmlns:xlink="http://www.w3.org/1999/xlink" x="0px" y="0px"
	 viewBox="0 0 1024 1024" style="enable-background:new 0 0 1024 1024;" xml:space="preserve">
<style type="text/css">
	
	.st1{fill:#226DB4;}
</style>
<g>
	<g class="st0">
		<path class="st1" d="M512,1023c-15.53,0-31.06-4-44.91-11.99L102.28,800.4c-27.71-16-44.92-45.81-44.92-77.8V301.4
			c0-31.99,17.21-61.8,44.92-77.8L467.09,12.99c27.7-15.99,62.12-15.99,89.83,0L921.73,223.6c27.71,16,44.92,45.81,44.92,77.8v421.2
			c0,31.99-17.21,61.8-44.92,77.8l-70.88,40.92c-14.32,8.27-32.64,3.36-40.9-10.96c-8.27-14.32-3.36-32.63,10.96-40.9l70.88-40.92
			c9.24-5.33,14.97-15.27,14.97-25.93V301.4c0-10.66-5.74-20.6-14.97-25.93L526.97,64.86c-9.24-5.33-20.71-5.33-29.94,0
			L132.22,275.47c-9.24,5.33-14.97,15.27-14.97,25.93v421.2c0,10.66,5.74,20.6,14.97,25.93l364.81,210.61
			c9.23,5.33,20.71,5.33,29.94,0l152.46-88.02c9.24-5.33,14.97-15.27,14.97-25.93v-315.9L512,423.99L314.62,537.93
			c-14.32,8.27-32.63,3.36-40.9-10.96c-8.27-14.32-3.36-32.64,10.96-40.9l212.35-122.59c9.26-5.35,20.68-5.35,29.94,0l212.35,122.59
			c9.26,5.35,14.97,15.23,14.97,25.93v333.19c0,31.99-17.21,61.8-44.92,77.8l-152.46,88.02C543.07,1019,527.53,1023,512,1023z"/>
	</g>
	<g class="st0">
		<path class="st1" d="M512,664.53c-5.17,0-10.34-1.34-14.97-4.01L72.33,415.34c-14.32-8.27-19.23-26.58-10.96-40.9
			c8.27-14.32,26.58-19.23,40.9-10.96L512,600.01l197.38-113.95c14.32-8.27,32.64-3.36,40.9,10.96c8.27,14.32,3.36,32.63-10.96,40.9
			L526.97,660.52C522.34,663.2,517.17,664.53,512,664.53z"/>
	</g>
</g>
</svg>
