<?xml version="1.0" encoding="UTF-8"?>
<svg id="Layer_1" data-name="Layer 1" xmlns="http://www.w3.org/2000/svg" viewBox="0 0 1024 1024">
  <defs>
    <style>
      .cls-1 {
        fill: #089949;
      }
    </style>
  </defs>
  <path class="cls-1" d="m447.53,1022.93c-1.46,0-2.94-.11-4.4-.33-81.22-12.06-190.13-54.82-277.44-108.94-47.52-29.46-85.73-60.1-113.56-91.08C18.23,784.84,1.04,747.69,1.04,712.14v-412.39c0-30.56,15.54-63.39,46.19-97.57,25.48-28.42,61.84-57.99,105.15-85.53C240.28,60.77,348.71,17.73,442.42,1.51c10.83-1.87,21.81,2.32,28.64,10.94,6.82,8.62,8.39,20.27,4.08,30.38l-186.13,436.93c57.35,26.31,116.2,46.98,164.66,57.1,13.91,2.9,23.87,15.16,23.87,29.37v426.7c0,8.73-3.8,17.02-10.41,22.72-5.48,4.73-12.45,7.28-19.59,7.28ZM61.04,406.25v305.9c0,20,12.35,44.32,35.72,70.33,23.69,26.37,58.46,54.1,100.54,80.18,68.91,42.72,151.64,77.69,220.23,93.89v-366.5c-79.17-20.09-174.08-60.47-253.78-108.43-41.82-25.17-76.31-50.48-102.71-75.38ZM397,73.15c-71.74,19.61-147.92,53.13-212.43,94.14-91.18,57.96-123.53,107.58-123.53,132.46,0,23.08,35,71.1,133.65,130.47,13.02,7.84,26.57,15.49,40.45,22.89L397,73.15Z"/>
  <path class="cls-1" d="m576.47,1022.93c-9.07,0-17.77-4.12-23.52-11.38-6.82-8.62-8.39-20.27-4.08-30.38l186.13-436.93c-57.35-26.31-116.2-46.98-164.66-57.1-13.91-2.9-23.87-15.16-23.87-29.37V31.07c0-8.73,3.8-17.02,10.41-22.72,6.61-5.7,15.37-8.24,24-6.96,81.22,12.06,190.13,54.82,277.44,108.94,47.52,29.46,85.73,60.1,113.56,91.08,33.9,37.74,51.09,74.89,51.09,110.43v412.39c0,30.56-15.54,63.39-46.19,97.57-25.48,28.42-61.84,57.99-105.15,85.53-87.9,55.88-196.33,98.92-290.04,115.14-1.71.3-3.42.44-5.12.44Zm212.4-452.03l-161.86,379.95c71.74-19.61,147.92-53.13,212.43-94.14,91.18-57.96,123.53-107.58,123.53-132.46,0-23.08-35-71.1-133.65-130.47-13.02-7.84-26.57-15.49-40.45-22.89Zm-182.39-136.95c79.17,20.09,174.08,60.47,253.78,108.43,41.82,25.17,76.31,50.48,102.71,75.38v-305.9c0-20-12.35-44.32-35.72-70.33-23.69-26.37-58.46-54.1-100.54-80.18-68.91-42.72-151.64-77.69-220.23-93.89v366.5Z"/>
</svg>