<?xml version="1.0" encoding="utf-8"?>
<!-- Generator: Adobe Illustrator 23.0.2, SVG Export Plug-In . SVG Version: 6.00 Build 0)  -->
<svg version="1.1" id="Layer_1" xmlns="http://www.w3.org/2000/svg" xmlns:xlink="http://www.w3.org/1999/xlink" x="0px" y="0px"
	 viewBox="0 0 1024 1024" style="enable-background:new 0 0 1024 1024;" xml:space="preserve">
<style type="text/css">
	
	.st1{fill:#226EB3;}
	.st2{fill:#089949;}
</style>
<g>
	<g class="st0">
		<path class="st1" d="M995.79,249.59c-16.55-39.14-40.24-74.28-70.42-104.46s-65.32-53.86-104.46-70.41
			c-13.01-5.5-26.27-10.12-39.75-13.87V32.91c0-16.5-13.37-29.88-29.88-29.88s-29.88,13.37-29.88,29.88v17.21
			c-9.41-0.81-18.89-1.23-28.43-1.23H391.92c-16.5,0-29.88,13.37-29.88,29.88s13.37,29.88,29.88,29.88h301.08
			c9.56,0,19.05,0.51,28.43,1.49v15.26c0,16.5,13.37,29.88,29.88,29.88s29.88-13.37,29.88-29.88v-2
			c37.94,13.14,72.72,34.79,101.95,64.02c50.79,50.79,78.75,118.31,78.75,190.13V692.9c0,71.82-27.96,139.34-78.75,190.13
			c-50.79,50.79-118.31,78.75-190.13,78.75h-73.02c-16.5,0-29.88,13.37-29.88,29.88s13.37,29.88,29.88,29.88h73.02
			c44.36,0,87.4-8.69,127.93-25.84c39.14-16.55,74.28-40.24,104.46-70.42s53.87-65.31,70.42-104.45
			c17.15-40.53,25.84-83.57,25.84-127.93V377.52C1021.62,333.16,1012.93,290.12,995.79,249.59z"/>
		<path class="st1" d="M659.64,692.56c0-44.36-8.69-87.4-25.84-127.93c-16.55-39.14-40.24-74.28-70.42-104.46
			c-30.18-30.18-65.32-53.87-104.46-70.42c-40.53-17.15-83.57-25.84-127.93-25.84s-87.4,8.69-127.93,25.84
			c-39.14,16.55-74.28,40.24-104.46,70.42c-13.48,13.48-25.66,27.97-36.5,43.35v-126c0-62.58,21.97-123.51,61.84-171.58
			c31.42-37.87,72.66-66.35,118.57-82.39v1.25c0,16.5,13.37,29.88,29.88,29.88s29.88-13.37,29.88-29.88V84.87c0-0.14,0-0.29,0-0.43
			v-52.1c0-16.5-13.37-29.88-29.88-29.88s-29.88,13.37-29.88,29.88v28.62c-64,17.91-121.75,55.23-164.56,106.83
			c-23.94,28.86-42.62,61.27-55.51,96.31C9.12,300.39,2.36,338.54,2.36,377.52v315.37c0,44.36,8.69,87.4,25.84,127.93
			c16.55,39.14,40.24,74.28,70.42,104.45c30.18,30.17,65.32,53.87,104.46,70.42c40.53,17.15,83.57,25.84,127.93,25.84
			c1.63,0,3.25-0.14,4.81-0.39c42.65-0.61,84.05-9.25,123.12-25.78c39.14-16.55,74.28-40.24,104.46-70.42
			c30.18-30.18,53.87-65.32,70.42-104.46C650.95,779.96,659.64,736.92,659.64,692.56z M521.13,882.69
			c-50.79,50.79-118.31,78.75-190.13,78.75s-139.34-27.96-190.13-78.75C90.07,831.9,62.11,764.38,62.11,692.56
			s27.96-139.34,78.75-190.13S259.18,423.67,331,423.67s139.34,27.96,190.13,78.75s78.75,118.31,78.75,190.13
			S571.91,831.9,521.13,882.69z"/>
	</g>
	<g class="st0">
		<path class="st2" d="M331.01,722.77c-7.98,0-15.92-3.17-21.81-9.45L212.56,610.2c-11.28-12.04-10.67-30.94,1.37-42.23
			c12.04-11.28,30.94-10.67,42.23,1.37l76.27,81.39l274.77-255.77c12.08-11.24,30.98-10.57,42.23,1.51
			c11.24,12.08,10.57,30.98-1.51,42.23L351.35,714.77C345.61,720.12,338.3,722.77,331.01,722.77z"/>
	</g>
</g>
</svg>
