<?xml version="1.0" encoding="utf-8"?>
<!-- Generator: Adobe Illustrator 23.0.3, SVG Export Plug-In . SVG Version: 6.00 Build 0)  -->
<svg version="1.1" id="Layer_1" xmlns="http://www.w3.org/2000/svg" xmlns:xlink="http://www.w3.org/1999/xlink" x="0px" y="0px"
	 viewBox="0 0 1024 1024" style="enable-background:new 0 0 1024 1024;" xml:space="preserve">
<style type="text/css">
	.st1{fill:#F4B01C;}
	.st2{fill:#256FB2;}
</style>
<g class="st0">
	<g class="st0">
		<path class="st1" d="M733.3,796.1c-65.5,0-118.8-53.3-118.8-118.8c0-33.2,10.2-60,30.4-79.6c5.5-5.4,11.5-9.9,17.9-13.8
			c-5.5-6-8.5-14.3-7.6-23c1.6-16.5,16.2-28.6,32.7-27c26,2.5,56.7,13.3,83.6,29c4.4,0.1,8.6,0.2,12.5,0.3
			c16.6,0.5,29.6,14.3,29.1,30.8c0,0.2,0,0.3,0,0.5c24,24.1,37.6,52.2,39,81.2c1.6,32.8-8.7,61.8-29.8,84
			C800.3,782.9,767.9,796.1,733.3,796.1z M753.8,622.9c-25,0.5-52.8,3.9-67.2,17.9c-8.2,8-12.2,19.9-12.2,36.5
			c0,32.4,26.4,58.8,58.8,58.8c18.2,0,34.8-6.4,45.5-17.7c9.7-10.1,14.1-23.5,13.3-39.7C790.9,653.2,767.9,632.9,753.8,622.9z"/>
	</g>
</g>
<g class="st0">
	<g>
		<path class="st2" d="M267.9,955.2c-32.4,0-63.4-12-87.4-33.8s-38.9-51.5-42-83.7l-4-41.4l-26.9-4.7C39.2,779.7-7.7,716.3,1,647.3
			l28.5-225.9c2.2-17.4,10.6-32.6,23.7-43c11.6-9.2,26.5-14.1,41.8-13.9c15.3,0.2,30,5.6,41.3,15.1c12.8,10.7,20.7,26.2,22.4,43.6
			L198.3,832c3.5,36.1,33.4,63.3,69.7,63.3H894c20,0,38.4-8.2,51.8-23c13.4-14.8,19.8-33.9,17.8-53.8L903,192
			c-3.5-36.1-33.4-63.3-69.7-63.3H207.3c-20,0-38.4,8.1-51.8,22.9c-13.4,14.8-19.8,33.9-17.9,53.8l3.9,40.8c0.2,2.6,2.4,4.5,5,4.5
			h636.1c16.6,0,30,13.4,30,30s-13.4,30-30,30H146.6c-33.6,0-61.5-25.2-64.7-58.7l-3.9-40.8c-3.5-36.4,8.6-72.8,33.2-99.9
			c24.6-27.1,59.7-42.6,96.2-42.6h626.1c32.4,0,63.4,12,87.4,33.8c24,21.8,38.9,51.5,42,83.7l60.6,626.4
			c3.5,36.4-8.6,72.8-33.2,99.9c-24.6,27.1-59.7,42.6-96.2,42.6H267.9z M93.9,424.6c-4.3,0-4.6,2.5-4.9,4.4L60.6,654.8
			c-4.7,37.1,20.5,71.3,57.4,77.7l10.6,1.8L99,429.1c-0.2-1.9-0.4-4.5-4.9-4.5C94,424.6,94,424.6,93.9,424.6z"/>
	</g>
</g>
</svg>
