<?xml version="1.0" encoding="utf-8"?>
<!-- Generator: Adobe Illustrator 24.1.0, SVG Export Plug-In . SVG Version: 6.00 Build 0)  -->
<svg version="1.1" id="Layer_1" xmlns="http://www.w3.org/2000/svg" xmlns:xlink="http://www.w3.org/1999/xlink" x="0px" y="0px"
	 viewBox="0 0 1024 1024" style="enable-background:new 0 0 1024 1024;" xml:space="preserve">
<style type="text/css">
	.st0{fill:#E42427;}
	.st1{fill:#226DB4;}
	.st2{fill:#FFFFFF;}
	.st3{fill:#E42527;}
</style>
<path class="st3" d="M1022.01,663.75L922.22,98.26c-6.46-36.61-34.17-65.09-70.6-72.53c-36.43-7.45-73.09,7.86-93.41,39
	c-9.05,13.88-5.14,32.46,8.73,41.52c13.88,9.05,32.46,5.14,41.52-8.73c10.34-15.85,26.45-13.96,31.14-13
	c4.69,0.96,20.24,5.54,23.53,24.18l99.79,565.48c2.12,11.99-3.2,20.49-6.56,24.5s-10.81,10.72-22.98,10.72H353.39
	c-16.57,0-30,13.43-30,30s13.43,30,30,30h77.28l-54.64,150.96c-4.28,11.84-15.62,19.79-28.21,19.79H323.4
	c-14.57,0-26.99-10.41-29.54-24.76L188.96,324.06l465.47-219.75c14.98-7.07,21.39-24.95,14.32-39.94
	c-7.07-14.98-24.95-21.39-39.94-14.32L52.18,322.28C15.6,339.55-5.05,379.45,1.97,419.29l48.64,275.87
	c7.6,43.09,44.87,74.37,88.63,74.37h67.81l27.73,156.33c7.64,43.04,44.9,74.28,88.62,74.28h24.42c37.77,0,71.77-23.86,84.63-59.37
	l62.03-171.38h438.91c26.67,0,51.8-11.72,68.95-32.15C1019.47,716.8,1026.65,690.02,1022.01,663.75z M139.24,709.53
	c-14.59,0-27.01-10.43-29.54-24.79L61.06,408.87c-2.34-13.28,4.54-26.58,16.74-32.34l54.93-25.93l63.68,358.93H139.24z"/>
<g>
	<path class="st1" d="M496.54,500.91c-13.63,0-27.44-3.1-40.37-9.6L318,421.94c-14.81-7.44-20.78-25.47-13.35-40.27
		c7.44-14.81,25.47-20.78,40.27-13.35l138.17,69.38c13.65,6.85,30.24,2.38,38.59-10.42L758.21,64.73
		c9.05-13.88,27.64-17.79,41.52-8.73c13.88,9.05,17.79,27.64,8.73,41.52L571.94,460.06C554.8,486.32,526.08,500.91,496.54,500.91z"
		/>
</g>
</svg>
