<?xml version="1.0" encoding="utf-8"?>
<!-- Generator: Adobe Illustrator 22.1.0, SVG Export Plug-In . SVG Version: 6.00 Build 0)  -->
<svg version="1.1" id="Layer_1" xmlns="http://www.w3.org/2000/svg" xmlns:xlink="http://www.w3.org/1999/xlink" x="0px" y="0px"
	 viewBox="0 0 1024 1024" style="enable-background:new 0 0 1024 1024;" xml:space="preserve">
<style type="text/css">
	.st0{fill:#226DB4;}
	.st1{fill:#EB3A38;}
</style>
<g>
	<g>
		<path class="st0" d="M472.9,1006.6c-5.5,0-11.1-1.5-16.1-4.7c-14-8.9-18-27.5-9.1-41.4l139-217.1c5.5-8.6,15-13.8,25.3-13.8h302
			c27.6,0,50-22.4,50-50V127.4c0-27.6-22.4-50-50-50H597.9c-16.6,0-30-13.4-30-30s13.4-30,30-30H914c60.7,0,110,49.3,110,110v552.1
			c0,60.7-49.3,110-110,110H628.3L498.2,992.8C492.5,1001.7,482.8,1006.6,472.9,1006.6z M334.1,789.5H110c-60.7,0-110-49.3-110-110
			V127.4c0-60.7,49.3-110,110-110h284.1c16.6,0,30,13.4,30,30s-13.4,30-30,30H110c-27.6,0-50,22.4-50,50v552.1c0,27.6,22.4,50,50,50
			h224.1c16.6,0,30,13.4,30,30S350.7,789.5,334.1,789.5z"/>
	</g>
	<g>
		<g>
			<circle class="st1" cx="731.9" cy="404.6" r="55"/>
		</g>
		<g>
			
				<ellipse transform="matrix(0.1602 -0.9871 0.9871 0.1602 30.5271 845.0803)" class="st1" cx="511.9" cy="404.6" rx="55" ry="55"/>
		</g>
		<g>
			<circle class="st1" cx="291.9" cy="404.6" r="55"/>
		</g>
	</g>
</g>
</svg>
