<?xml version="1.0" encoding="utf-8"?>
<!-- Generator: Adobe Illustrator 26.0.3, SVG Export Plug-In . SVG Version: 6.00 Build 0)  -->
<svg version="1.1" id="Layer_1" xmlns="http://www.w3.org/2000/svg" xmlns:xlink="http://www.w3.org/1999/xlink" x="0px" y="0px"
	 viewBox="0 0 1024 1024" style="enable-background:new 0 0 1024 1024;" xml:space="preserve">
<style type="text/css">
	.st0{fill:#E42527;}
	.st1{fill:#226DB4;}
	.st2{fill:#FFFFFF;}
	.st3{fill:#F9B21D;}
</style>
<g>
	<g>
		<path class="st1" d="M140,685.6c-10.2,0-20.2-5.2-25.8-14.7c-38.2-64.2-57.9-137.8-57-212.9c0.2-16.4,13.6-29.6,30-29.6
			c0.1,0,0.3,0,0.4,0c16.6,0.2,29.8,13.8,29.6,30.4c-0.8,64,16,126.7,48.5,181.4c8.5,14.2,3.8,32.6-10.4,41.1
			C150.5,684.3,145.2,685.6,140,685.6z"/>
	</g>
	<g>
		<path class="st1" d="M655.9,170.1c-5.2,0-10.5-1.4-15.3-4.2c-54.7-32.7-117.6-49.5-181.7-48.7c-0.1,0-0.3,0-0.4,0
			c-16.4,0-29.8-13.2-30-29.6c-0.2-16.6,13-30.2,29.6-30.4c75.2-1,149,18.8,213.2,57.1c14.2,8.5,18.9,26.9,10.4,41.1
			C676.1,164.9,666.1,170.1,655.9,170.1z"/>
	</g>
	<g>
		<path class="st1" d="M647.2,821.6c-10.5,0-20.7-5.5-26.2-15.3c-8.1-14.5-3-32.7,11.5-40.8c27.6-15.5,53-34.8,75.6-57.3
			c22.6-22.6,41.8-48,57.3-75.5c8.1-14.4,26.4-19.6,40.8-11.5c14.4,8.1,19.6,26.4,11.5,40.8c-18.1,32.3-40.7,62.1-67.2,88.6
			c-26.5,26.5-56.3,49.1-88.7,67.3C657.2,820.4,652.2,821.6,647.2,821.6z"/>
	</g>
	<g>
		<path class="st3" d="M826.6,562.7c-50.4,0-100.8-19.2-139.1-57.5c-37.2-37.2-57.6-86.6-57.6-139.1c0-52.6,20.5-102,57.6-139.1
			c76.7-76.7,201.6-76.7,278.3,0l0,0c37.2,37.2,57.6,86.6,57.6,139.1c0,52.6-20.5,102-57.6,139.1C927.4,543.5,877,562.7,826.6,562.7
			z M826.6,229.3c-35,0-70.1,13.3-96.7,40c-25.8,25.8-40.1,60.2-40.1,96.7c0,36.5,14.2,70.9,40.1,96.7c53.3,53.3,140.1,53.3,193.4,0
			c25.8-25.8,40.1-60.2,40.1-96.7c0-36.5-14.2-70.9-40.1-96.7C896.7,242.6,861.7,229.3,826.6,229.3z"/>
	</g>
	<g>
		<path class="st1" d="M197.4,394.2c-52.6,0-102-20.5-139.1-57.6c-76.7-76.7-76.7-201.6,0-278.3c76.7-76.7,201.6-76.7,278.3,0
			c37.2,37.2,57.6,86.6,57.6,139.1c0,52.6-20.5,102-57.6,139.1C299.4,373.7,249.9,394.2,197.4,394.2z M197.4,60.7
			c-35,0-70.1,13.3-96.7,40c-53.3,53.3-53.3,140.1,0,193.4c25.8,25.8,60.2,40.1,96.7,40.1c36.5,0,70.9-14.2,96.7-40.1
			c25.8-25.8,40.1-60.2,40.1-96.7c0-36.5-14.2-70.9-40.1-96.7C267.4,74,232.4,60.7,197.4,60.7z"/>
	</g>
	<g>
		<path class="st0" d="M366,1023.4c-52.6,0-102-20.5-139.1-57.6c-76.7-76.7-76.7-201.6,0-278.3c37.2-37.2,86.6-57.6,139.1-57.6
			c52.6,0,102,20.5,139.1,57.6c76.7,76.7,76.7,201.6,0,278.3C468,1002.9,418.5,1023.4,366,1023.4z M366,689.8
			c-36.5,0-70.9,14.2-96.7,40.1c-53.3,53.3-53.3,140.1,0,193.4c25.8,25.8,60.2,40.1,96.7,40.1c36.5,0,70.9-14.2,96.7-40.1
			c53.3-53.3,53.3-140.1,0-193.4C436.9,704.1,402.5,689.8,366,689.8z"/>
	</g>
</g>
</svg>
