<?xml version="1.0" encoding="utf-8"?>
<!-- Generator: Adobe Illustrator 24.0.3, SVG Export Plug-In . SVG Version: 6.00 Build 0)  -->
<svg version="1.1" id="Layer_1" xmlns="http://www.w3.org/2000/svg" xmlns:xlink="http://www.w3.org/1999/xlink" x="0px" y="0px"
	 viewBox="0 0 1024 1024" style="enable-background:new 0 0 1024 1024;" xml:space="preserve">
<style type="text/css">
	.st0{fill:#226DB4;}
	.st1{fill:#F9B21D;}
	.st2{fill:#FFFFFF;}
</style>
<g>
	<g>
		<path class="st0" d="M194.57,1023.5c-24.29,0-47.93-8.08-67.28-23.14c-21.48-16.73-35.91-40.71-40.62-67.53
			c-0.01-0.03-0.01-0.07-0.02-0.1c-49.91-290.07-63.57-545.74-44.3-828.94c0.02-0.37,0.05-0.74,0.08-1.11
			c2.16-29.37,15.63-56.14,37.92-75.38C102.64,8.05,131.08-1.36,160.46,0.8c0.03,0,0.07,0.01,0.1,0.01
			c41.97,3.23,415.85,32.11,617.16,51.22c0.06,0.01,0.13,0.01,0.19,0.02c21.48,2.18,39.79,11.24,52.95,26.21
			c13.24,15.05,19.94,34.59,19.37,56.51c-0.36,14.06-2.56,36.85-2.65,37.81c-1.6,16.49-16.28,28.56-32.75,26.97
			c-16.49-1.6-28.56-16.26-26.97-32.75c0.02-0.22,2.08-21.64,2.39-33.57c0.34-13.14-5.65-20.16-18.31-21.47
			C571.18,92.69,198.05,63.87,155.99,60.63c-13.36-0.96-26.3,3.32-36.45,12.08c-10.16,8.77-16.3,20.97-17.28,34.36l-0.03,0.5
			c0,0.06-0.01,0.13-0.01,0.19c-18.94,278.27-5.51,529.57,43.56,814.76c4.46,25.17,27.03,42.72,52.53,40.84
			c40.24-2.86,398.58-28.42,609.83-46.26c6.04-0.51,11.72-3.58,15.19-8.21c2.59-3.46,3.5-7.19,2.71-11.08
			c-4.22-20.6-6.61-34.76-6.71-35.36c-2.75-16.34,8.27-31.81,24.61-34.56c16.33-2.75,31.81,8.27,34.56,24.61
			c0.02,0.13,2.33,13.78,6.32,33.26c4.26,20.8-0.51,41.78-13.44,59.06c-13.78,18.42-34.98,30.1-58.18,32.06
			c-211.64,17.87-570.34,43.45-610.55,46.31C199.94,1023.4,197.25,1023.5,194.57,1023.5z"/>
	</g>
	<path class="st1" d="M926.72,568.21c38.66-32.15,63.31-80.59,63.31-134.68c0-96.57-78.57-175.14-175.14-175.14
		c-96.57,0-175.14,78.57-175.14,175.14c0,57.9,28.25,109.32,71.68,141.22l15.4,200.17c0.83,10.76,7.37,20.24,17.12,24.84
		c4.07,1.92,8.44,2.86,12.79,2.86c6.08,0,12.13-1.85,17.27-5.47l59.32-41.75l65.82,36.18c9.7,5.33,21.54,4.89,30.82-1.15
		c9.27-6.04,14.47-16.69,13.52-27.72L926.72,568.21z M814.89,318.38c63.49,0,115.14,51.65,115.14,115.14
		s-51.65,115.14-115.14,115.14c-63.49,0-115.14-51.65-115.14-115.14S751.4,318.38,814.89,318.38z M845.81,693.8
		c-10.04-5.52-22.35-4.84-31.72,1.76l-31.49,22.17l-8.76-113.93c13.17,3.18,26.92,4.87,41.05,4.87c18.97,0,37.23-3.04,54.35-8.64
		l9.64,111.95L845.81,693.8z"/>
	<g>
		<path class="st0" d="M574.75,353.36c-0.49,0-0.98-0.01-1.47-0.04l-325.69-15.72c-16.55-0.8-29.32-14.86-28.52-31.41
			c0.8-16.55,14.88-29.3,31.41-28.52l325.69,15.72c16.55,0.8,29.32,14.86,28.52,31.41C603.91,340.86,590.65,353.36,574.75,353.36z"
			/>
	</g>
	<g>
		<path class="st0" d="M557.98,543.17c-0.06,0-0.11,0-0.17,0l-305.75-1.69c-16.57-0.09-29.93-13.6-29.83-30.17
			c0.09-16.57,13.62-29.95,30.17-29.83l305.75,1.69c16.57,0.09,29.92,13.6,29.83,30.17C587.89,529.85,574.47,543.17,557.98,543.17z"
			/>
	</g>
	<g>
		<path class="st0" d="M270.49,745.29c-16.07,0-29.37-12.73-29.96-28.91c-0.6-16.56,12.34-30.47,28.89-31.07l356.25-12.91
			c16.52-0.63,30.47,12.34,31.07,28.89c0.6,16.56-12.34,30.47-28.89,31.07L271.6,745.27C271.23,745.29,270.86,745.29,270.49,745.29z
			"/>
	</g>
</g>
</svg>
