<svg id="Layer_1" data-name="Layer 1" xmlns="http://www.w3.org/2000/svg" viewBox="0 0 1024 1024"><defs><style>.cls-2{fill:#e42527;}.cls-3{fill:#f9b21d;}</style></defs><title>Inventory-White-BG</title><g class="cls-1"><path class="cls-2" d="M263.6,865.74a30,30,0,0,1-29.51-24.8L104.55,106.26a36.37,36.37,0,0,0-25.09-28.5l-57.87-18A30,30,0,1,1,39.41,2.47l57.87,18a96.15,96.15,0,0,1,66.36,75.37L293.18,830.52a30,30,0,0,1-24.33,34.76A30.38,30.38,0,0,1,263.6,865.74Z"/></g><g class="cls-1"><path class="cls-2" d="M406.26,965.63a30,30,0,0,1-5.18-59.55l532.26-93.85a36.48,36.48,0,1,0-12.67-71.85L463.55,821a96.48,96.48,0,0,1-111.77-78.26L271.18,285.6a96.48,96.48,0,0,1,78.26-111.77l457.12-80.6a96.48,96.48,0,0,1,111.77,78.26l74.61,423.13A30,30,0,0,1,933.85,605L859.24,181.9A36.49,36.49,0,0,0,817,152.31L359.85,232.92a36.47,36.47,0,0,0-29.58,42.26l80.6,457.12a36.47,36.47,0,0,0,42.26,29.59l457.12-80.6a96.48,96.48,0,1,1,33.51,190L411.5,965.17A30.18,30.18,0,0,1,406.26,965.63Z"/></g><g class="cls-1"><path class="cls-3" d="M527,381.94a30,30,0,0,1-5.17-59.55l173.57-30.6a30,30,0,0,1,10.42,59.09l-173.57,30.6A30.38,30.38,0,0,1,527,381.94Z"/></g><g class="cls-1"><path class="cls-2" d="M322.44,1022.89a120,120,0,1,1,21-1.85A120.84,120.84,0,0,1,322.44,1022.89Zm.38-179.35a60.13,60.13,0,0,0-10.49.92,59.43,59.43,0,1,0,10.49-.92Z"/></g></svg>