<?xml version="1.0" encoding="utf-8"?>
<!-- Generator: Adobe Illustrator 23.0.3, SVG Export Plug-In . SVG Version: 6.00 Build 0)  -->
<svg version="1.1" id="Layer_1" xmlns="http://www.w3.org/2000/svg" xmlns:xlink="http://www.w3.org/1999/xlink" x="0px" y="0px"
	 viewBox="0 0 1024 1024" style="enable-background:new 0 0 1024 1024;" xml:space="preserve">
<style type="text/css">
	.st0{opacity:0.9;}
	.st1{fill:#236EB4;}
	.st2{fill:#E32628;}
</style>
<g class="st0">
	<path class="st1" d="M933.46,298.42c-5.05,0-10.17-1.29-14.86-3.99L527.12,68.41c-9.32-5.38-20.91-5.38-30.23,0L237.96,217.89
		c-14.24,8.22-32.44,3.34-40.66-10.9c-8.22-14.24-3.34-32.44,10.9-40.66L467.12,16.85c27.69-15.98,62.08-15.98,89.77,0
		l391.49,226.03c14.24,8.22,19.12,26.43,10.9,40.66C953.75,293.09,943.75,298.42,933.46,298.42z"/>
</g>
<g class="st0">
	<path class="st1" d="M512,1019.14c-15.52,0-31.04-4-44.88-11.99L105.63,798.45c-27.69-15.99-44.88-45.77-44.88-77.74V429.29
		c0-16.44,13.33-29.77,29.77-29.77s29.77,13.33,29.77,29.77v291.41c0,10.77,5.79,20.8,15.12,26.18l361.49,208.71
		c9.32,5.38,20.91,5.38,30.23,0l361.49-208.71c9.32-5.38,15.12-15.42,15.12-26.18V550.3c0-16.44,13.33-29.77,29.77-29.77
		s29.77,13.33,29.77,29.77v170.41c0,31.97-17.2,61.76-44.88,77.74l-361.49,208.71C543.04,1015.15,527.52,1019.14,512,1019.14z"/>
</g>
<g class="st0">
	<path class="st2" d="M511.99,743.39c-0.92,0-1.85-0.04-2.78-0.13c-9.02-0.84-17.19-5.7-22.21-13.25
		c-50.58-76.03-118.34-141.57-195.97-189.54c-80.61-49.81-169.23-80.31-263.4-90.64C12.42,448.15,0.91,435.3,0.91,420V263.8
		c0-8.14,3.31-15.94,9.17-21.59s13.77-8.69,21.91-8.39c98.44,3.55,192.96,27.27,280.93,70.51
		c75.03,36.88,141.86,86.18,199.09,146.81c57.22-60.63,124.06-109.94,199.09-146.81c87.97-43.24,182.49-66.96,280.93-70.51
		c8.13-0.3,16.05,2.73,21.91,8.39c5.86,5.65,9.17,13.45,9.17,21.59V420c0,15.3-11.52,28.15-26.73,29.82
		c-94.17,10.33-182.8,40.83-263.41,90.64c-77.64,47.97-145.4,113.51-195.98,189.53c-1.03,1.55-2.2,3-3.5,4.33
		C527.81,740.14,520.04,743.39,511.99,743.39z M60.91,393.64c42.46,6.34,84.3,16.62,124.73,30.65
		c47.75,16.58,93.83,38.49,136.94,65.13c42.55,26.3,82.39,57.3,118.42,92.15c25.65,24.82,49.42,51.63,70.99,80.07
		c21.57-28.44,45.35-55.27,71.01-80.09c36.03-34.85,75.87-65.85,118.42-92.14c43.12-26.64,89.19-48.55,136.95-65.13
		c40.43-14.03,82.27-24.31,124.73-30.65v-98c-78.77,6.63-154.5,27.61-225.54,62.53c-77.88,38.28-146.1,91.21-202.78,157.34
		c-5.7,6.65-14.02,10.48-22.78,10.48s-17.08-3.83-22.78-10.48c-56.68-66.12-124.9-119.06-202.78-157.34
		c-71.04-34.92-146.77-55.9-225.54-62.53V393.64z"/>
</g>
<g class="st0">
	<path class="st2" d="M512,743.38c-16.57,0-30-13.43-30-30V495.99c0-16.57,13.43-30,30-30s30,13.43,30,30v217.38
		C542,729.94,528.57,743.38,512,743.38z"/>
</g>
</svg>
