<?xml version="1.0" encoding="utf-8"?>
<!-- Generator: Adobe Illustrator 22.1.0, SVG Export Plug-In . SVG Version: 6.00 Build 0)  -->
<svg version="1.1" id="Layer_1" xmlns="http://www.w3.org/2000/svg" xmlns:xlink="http://www.w3.org/1999/xlink" x="0px" y="0px"
	 viewBox="0 0 1024 1024" style="enable-background:new 0 0 1024 1024;" xml:space="preserve">
<style type="text/css">
	.st1{fill:#226EB3;}
</style>
<g>
	<g class="st0">
		<path class="st1" d="M297.2,934.7c-26.1,0-52.5-7.2-76-22.2c-31.9-20.4-53.9-51.9-62.1-88.9c-8.1-36.9-1.4-74.8,19-106.7
			l40.7-63.7h-75.1C65.6,653.1,2,589.6,2,511.5c0-78.1,63.6-141.6,141.7-141.6h75.1L178,306.2c-20.4-31.9-27.1-69.8-19-106.7
			c8.1-36.9,30.2-68.5,62.1-88.9c65.8-42,153.6-22.7,195.6,43.1l228.7,357.9L416.8,869.4h0C389.8,911.6,344,934.7,297.2,934.7z
			 M143.7,429.9c-45,0-81.7,36.6-81.7,81.6c0,45,36.6,81.6,81.7,81.6h184.7l-99.7,156c-11.7,18.4-15.6,40.2-10.9,61.5
			c4.7,21.3,17.4,39.5,35.8,51.2c38,24.2,88.5,13.1,112.8-24.8h0l208.1-325.5L366.2,186c-24.2-37.9-74.8-49.1-112.8-24.8
			c-18.4,11.7-31.1,29.9-35.8,51.2c-4.7,21.3-0.8,43.1,10.9,61.5l99.7,156H143.7z"/>
	</g>
	<g class="st0">
		<path class="st1" d="M727.8,935.7c-46.8,0-92.6-23.1-119.6-65.3L487.1,680.2c-8.9-14-4.8-32.5,9.2-41.4c14-8.9,32.5-4.8,41.4,9.2
			l121.1,190.1c24.2,37.9,74.8,49,112.8,24.8c18.4-11.7,31.1-29.9,35.8-51.2c4.7-21.3,0.8-43.1-10.9-61.5L696,593.1h184.3
			c45,0,81.7-36.6,81.7-81.6c0-45-36.6-81.6-81.7-81.6H697.3l99.1-155.1c11.7-18.4,15.6-40.2,10.9-61.5
			c-4.7-21.3-17.4-39.5-35.8-51.2c-38-24.2-88.5-13.1-112.8,24.8L538.1,375.8c-8.9,14-27.5,18.1-41.4,9.1
			c-14-8.9-18.1-27.5-9.1-41.4l120.6-188.8c42.1-65.8,129.8-85.1,195.6-43.1c31.9,20.4,53.9,51.9,62.1,88.9
			c8.1,36.9,1.4,74.8-19,106.7l-40.1,62.8h73.5c78.1,0,141.7,63.5,141.7,141.6c0,78.1-63.6,141.6-141.7,141.6h-74.8l41.4,64.7
			c20.4,31.9,27.1,69.8,19,106.7c-8.1,36.9-30.2,68.5-62.1,88.9C780.3,928.5,753.9,935.7,727.8,935.7z"/>
	</g>
</g>
</svg>
