<?xml version="1.0" encoding="utf-8"?>
<!-- Generator: Adobe Illustrator 23.1.1, SVG Export Plug-In . SVG Version: 6.00 Build 0)  -->
<svg version="1.1" id="Layer_1" xmlns="http://www.w3.org/2000/svg" xmlns:xlink="http://www.w3.org/1999/xlink" x="0px" y="0px"
	 viewBox="0 0 1024 1024" style="enable-background:new 0 0 1024 1024;" xml:space="preserve">
<style type="text/css">
	.st0{enable-background:new    ;}
	.st1{fill:#E42527;}
	.st2{fill:#226DB4;}
	.st3{fill:#F9B21D;}
</style>
<g>
	<g class="st0">
		<path class="st1" d="M114.6,884c-25.1,0-46.8-19-49.6-44.7v-0.1l-64.6-614c-1.4-13.3,2.4-26.4,10.9-36.8
			c8.4-10.3,20.3-16.8,33.5-18.2h0.1l283.8-29.8c16.5-1.7,31.2,10.2,33,26.7s-10.2,31.2-26.7,33L61.1,228.9L123.6,823l45.7-4.8
			c16.5-1.7,31.2,10.2,33,26.7c1.7,16.5-10.2,31.2-26.7,33l-55.5,5.8C118.2,883.9,116.4,884,114.6,884z"/>
	</g>
	<g class="st0">
		<path class="st2" d="M888.2,843.9c-2.4,0-4.8-0.2-7.2-0.5l-55.3-7.8c-16.4-2.3-27.8-17.5-25.5-33.9s17.5-27.8,33.9-25.5l45.4,6.4
			l83.1-591.7l-591.7-83.1l-26.2,186.5c-2.3,16.4-17.5,27.8-33.9,25.5s-27.8-17.5-25.5-33.9l27.6-196.4c1.8-13.2,8.7-24.9,19.5-33
			c10.7-8,23.8-11.4,37-9.5l611.5,85.9c13.2,1.8,24.9,8.7,33,19.5c8,10.7,11.4,23.8,9.5,37l-85.9,611.5c-1.8,13.2-8.7,24.9-19.5,33
			C909.3,840.5,898.9,843.9,888.2,843.9z M878.1,792.6L878.1,792.6L878.1,792.6z M972.6,192.3L972.6,192.3L972.6,192.3z M964,180.8
			C964,180.9,964,180.9,964,180.8C964,180.9,964,180.9,964,180.8z M372.3,97.8L372.3,97.8L372.3,97.8z"/>
	</g>
	<g class="st0">
		<path class="st3" d="M809.8,977.6H192.4c-27.6,0-50-22.4-50-50V310.1c0-27.6,22.4-50,50-50h617.5c27.6,0,50,22.4,50,50v617.5
			c0,0.1,0,0.2,0,0.3C859.6,955.3,837.2,977.6,809.8,977.6z M829.9,927.6L829.9,927.6L829.9,927.6z M202.4,917.6h597.5V320.1H202.4
			V917.6z"/>
	</g>
	<g class="st0">
		<path class="st2" d="M681.3,470.3h-360c-16.6,0-30-13.4-30-30s13.4-30,30-30h360c16.6,0,30,13.4,30,30S697.9,470.3,681.3,470.3z"
			/>
	</g>
	<g class="st0">
		<path class="st2" d="M681.3,589.3h-360c-16.6,0-30-13.4-30-30s13.4-30,30-30h360c16.6,0,30,13.4,30,30S697.9,589.3,681.3,589.3z"
			/>
	</g>
	<g class="st0">
		<path class="st2" d="M681.3,708.3h-360c-16.6,0-30-13.4-30-30s13.4-30,30-30h360c16.6,0,30,13.4,30,30S697.9,708.3,681.3,708.3z"
			/>
	</g>
	<g class="st0">
		<path class="st2" d="M500.8,827.3H321.7c-16.6,0-30-13.4-30-30s13.4-30,30-30h179.1c16.6,0,30,13.4,30,30S517.4,827.3,500.8,827.3
			z"/>
	</g>
</g>
</svg>
