<?xml version="1.0" encoding="UTF-8"?>
<svg version="1.1" xmlns="http://www.w3.org/2000/svg" width="512" height="512">
<path d="M0 0 C4.06709983 1.45550607 6.4814273 3.24723318 8.9375 6.8125 C10.18082407 10.54247221 10.48864783 13.09081737 10 17 C7.36487593 21.59758181 4.37099299 24.64390845 0.25 27.9375 C-0.82458208 28.81205376 -1.89880044 29.68705462 -2.97265625 30.5625 C-3.97167969 31.366875 -4.97070312 32.17125 -6 33 C-21.37820614 45.40954374 -31.45581277 62.14976342 -37 81 C-37.31839844 82.02480469 -37.63679688 83.04960937 -37.96484375 84.10546875 C-44.05371763 107.14217593 -40.36846478 133.21354234 -29 154 C-28.4534375 155.02351562 -27.906875 156.04703125 -27.34375 157.1015625 C-23.1208628 164.68356452 -18.34254774 173.10496817 -11 178 C-11 178.66 -11 179.32 -11 180 C-10.44828125 180.24492187 -9.8965625 180.48984375 -9.328125 180.7421875 C-6.52527531 182.25647878 -4.23610234 184.13195147 -1.75 186.125 C17.50284701 200.92840704 42.15437885 207.97852637 66.3125 205.375 C84.60634208 202.97892917 103.35768165 196.99035029 117.28515625 184.43359375 C119 183 119 183 121 183 C121 182.34 121 181.68 121 181 C122.06759565 180.06088291 123.18238751 179.17537146 124.3125 178.3125 C141.68519344 163.39965696 151.49759437 139.27327605 153.8125 116.875 C153.89680002 115.25098499 153.96161808 113.62574847 154 112 C154.05800781 110.96166016 154.05800781 110.96166016 154.1171875 109.90234375 C154.92248907 85.96699139 145.94679565 62.4550179 131 44 C130.39800781 43.23429687 129.79601562 42.46859375 129.17578125 41.6796875 C124.88071738 36.51120393 120.05086274 32.48698607 114.65551758 28.53686523 C106.14673242 22.29346483 106.14673242 22.29346483 104 18 C103.48962913 13.94619711 103.10725459 9.8225342 104.94140625 6.078125 C107.4856105 2.85599798 109.99610636 0.81897824 114 0 C121.14443855 -0.62188433 125.61962081 2.2650765 131.109375 6.56640625 C159.25196027 30.25942061 177.65282466 59.87874571 181 97 C183.01998374 127.99064908 175.08991399 160.78156721 155.3125 185.3125 C153.89050049 186.88911977 152.45371931 188.45257871 151 190 C150.33097656 190.80695313 149.66195312 191.61390625 148.97265625 192.4453125 C129.11849266 216.03368563 98.52267351 230.18318901 68.08251953 232.85498047 C34.55427147 235.18977289 2.13382537 225.74086432 -23.63671875 203.75 C-26.13297138 201.54105896 -28.57296943 199.28451064 -31 197 C-31.59167969 196.47277344 -32.18335938 195.94554687 -32.79296875 195.40234375 C-56.10763349 173.74905654 -66.08202284 141.41764067 -68.23828125 110.59375 C-68.31388355 107.6969883 -68.20618816 104.89038315 -68 102 C-67.91878906 100.68644531 -67.83757812 99.37289062 -67.75390625 98.01953125 C-65.11648494 63.98767553 -48.5675281 32.85438407 -23.0078125 10.453125 C-16.03696641 4.76781156 -9.25304078 -0.75844597 0 0 Z " fill="#226CB4" transform="translate(199,141)"/>
<path d="M0 0 C3.19716158 2.90651052 4.83718565 5.88962517 5.33116722 10.24238205 C5.4317944 13.17284318 5.43335611 16.08893088 5.40307617 19.02099609 C5.40373329 20.6901709 5.40373329 20.6901709 5.40440369 22.39306641 C5.40231799 26.06170351 5.37899647 29.72988048 5.35546875 33.3984375 C5.34987204 35.94576772 5.34560229 38.49310118 5.34260559 41.04043579 C5.33233163 47.05395904 5.30870085 53.06728557 5.27855712 59.08073008 C5.24497423 65.92956691 5.22851736 72.77841178 5.21347082 79.62731051 C5.18215 93.70996458 5.12941388 107.79247328 5.0625 121.875 C5.67733749 122.07153168 6.29217499 122.26806335 6.92564392 122.47055054 C8.13795433 122.86483749 8.13795433 122.86483749 9.37475586 123.26708984 C10.17521835 123.52549652 10.97568085 123.7839032 11.80039978 124.05014038 C25.64699597 129.09920848 35.05746028 143.09232295 41.0625 155.875 C49.46176839 175.62324941 51.78628852 201.23776088 44.37768555 221.77319336 C42.55077628 226.25923797 40.55263865 229.77024751 36.0625 231.875 C31.41331543 232.65731471 27.47216418 232.4748571 23.125 230.625 C20.18865919 228.13355931 18.25583535 226.23250517 17.69921875 222.32421875 C17.71597656 221.41285156 17.73273438 220.50148438 17.75 219.5625 C17.75386719 218.65886719 17.75773437 217.75523437 17.76171875 216.82421875 C18.11631304 213.34735266 19.02403259 210.20554288 20.0625 206.875 C18.96578979 206.89856567 18.96578979 206.89856567 17.84692383 206.92260742 C14.5230284 206.98510351 11.1992568 207.02403752 7.875 207.0625 C6.72451172 207.08763672 5.57402344 207.11277344 4.38867188 207.13867188 C2.72094727 207.15317383 2.72094727 207.15317383 1.01953125 207.16796875 C-0.51223755 207.19153442 -0.51223755 207.19153442 -2.07495117 207.21557617 C-6.43514251 206.69681567 -9.03302923 204.68169015 -12.25 201.8125 C-14.71234759 197.52619123 -14.5903116 193.70739804 -13.9375 188.875 C-12.20077591 184.57889305 -10.02572666 182.92361301 -5.9375 180.875 C-2.9831543 180.53442383 -2.9831543 180.53442383 0.23828125 180.58203125 C1.39521484 180.59169922 2.55214844 180.60136719 3.74414062 180.61132812 C4.94232422 180.63646484 6.14050781 180.66160156 7.375 180.6875 C8.59251953 180.70103516 9.81003906 180.71457031 11.06445312 180.72851562 C14.06425345 180.76380739 17.06314975 180.81311519 20.0625 180.875 C16.25779829 168.24877752 12.35773182 155.53237982 0.05078125 148.76953125 C-5.4500737 146.29468688 -10.19195165 146.6678235 -15.671875 148.74609375 C-24.5391905 153.16446302 -29.81108484 161.10039013 -33.16015625 170.1953125 C-37.580693 184.10653567 -37.95459576 196.38217981 -34.62109375 210.609375 C-33.33503351 216.75306849 -32.84293573 221.68587146 -35.6875 227.375 C-38.37858812 230.36509791 -40.31070878 231.64413524 -44.3046875 232.2109375 C-48.40834241 232.27485736 -51.45312199 232.06336923 -55.3125 230.5625 C-65.00706133 220.63711578 -64.33195904 202.71514647 -64.30541992 189.80615234 C-63.99312724 168.91066374 -57.13361312 149.50309192 -42.6875 134.0625 C-36.47423118 128.14047816 -29.38103254 123.56370651 -20.9375 121.875 C-20.9375 96.795 -20.9375 71.715 -20.9375 45.875 C-27.8675 45.875 -34.7975 45.875 -41.9375 45.875 C-48.9375 41.875 -48.9375 41.875 -50.9375 38.625 C-52.18427698 33.94958633 -52.07524579 31.57768261 -50.9375 26.875 C-48.7121686 23.34516399 -46.78286666 21.42018192 -42.9375 19.875 C-40.46386719 19.64794922 -40.46386719 19.64794922 -37.734375 19.6796875 C-36.26484375 19.68935547 -36.26484375 19.68935547 -34.765625 19.69921875 C-33.74984375 19.71597656 -32.7340625 19.73273438 -31.6875 19.75 C-30.65625 19.75902344 -29.625 19.76804687 -28.5625 19.77734375 C-26.02059713 19.80087989 -23.4791672 19.83375977 -20.9375 19.875 C-20.98390625 19.00617188 -21.0303125 18.13734375 -21.078125 17.2421875 C-21.40983332 6.65121482 -21.40983332 6.65121482 -19.1875 3.1875 C-13.94552826 -2.20008207 -6.88693247 -2.63754861 0 0 Z " fill="#F9B21C" transform="translate(264.9375,57.125)"/>
<path d="M0 0 C4.79847194 2.12240105 8.63724054 5.21289417 12.8125 8.375 C43.02186518 31.16191674 83.83002791 41.09807261 121.265625 36.28125 C132.86236832 34.56209808 143.99239861 32.02314263 155 28 C156.21300781 27.57074219 157.42601562 27.14148438 158.67578125 26.69921875 C172.42406991 21.54542522 185.37828488 14.43363027 197.03125 5.49609375 C200.7952372 2.6357622 203.81999069 2.60826582 208.453125 2.6484375 C212.62161229 3.22384219 214.19423148 4.91365463 217 8 C219.54676486 11.47286118 219.3628022 14.79149443 219 19 C213.07557389 33.94072443 189.56161784 43.66538309 175.6875 49.82519531 C156.36456823 58.11587658 134.95827542 64.0711399 113.828125 64.203125 C112.69423088 64.21371445 112.69423088 64.21371445 111.53742981 64.22451782 C79.83901334 64.45326111 79.83901334 64.45326111 65 61 C64.14019531 60.80664062 63.28039062 60.61328125 62.39453125 60.4140625 C48.24927606 57.14511622 35.1032746 52.21228766 22 46 C21.31357422 45.67805664 20.62714844 45.35611328 19.91992188 45.02441406 C11.89530199 41.19834656 4.61240391 36.53009129 -2.625 31.375 C-3.38385498 30.83649414 -4.14270996 30.29798828 -4.92456055 29.74316406 C-9.80286291 26.16964482 -14.2422456 22.5155088 -17 17 C-17.39231417 12.29223 -17.47336758 9.92920303 -15.3125 5.6875 C-10.90655622 0.56707885 -6.76628659 -1.12336032 0 0 Z " fill="#226CB4" transform="translate(153,392)"/>
<path d="M0 0 C3.51482152 2.42132149 5.54098668 4.89673987 6.8125 8.9375 C7.30375285 13.65019678 6.47956084 17.61963535 3.625 21.4375 C0.12054656 25.07513932 -4.12565756 27.6092357 -8.38525391 30.25878906 C-35.15713237 46.95045519 -55.3039308 70.26092583 -70.1875 97.9375 C-70.77144531 98.98808594 -71.35539062 100.03867188 -71.95703125 101.12109375 C-84.61122228 124.91554324 -90.26252954 151.32816323 -91.46826172 178.08105469 C-91.99146769 188.39302515 -91.99146769 188.39302515 -95.1875 192.9375 C-98.69278323 195.91427046 -102.72367894 197.29946241 -107.3125 197 C-111.64067128 196.13095774 -114.23051764 194.24650407 -117.1875 190.9375 C-119.21190621 184.79005315 -119.41923041 179.36155706 -119.0625 172.9375 C-119.01246826 171.98689697 -118.96243652 171.03629395 -118.91088867 170.05688477 C-115.62321044 117.82501618 -92.55189138 70.05128909 -56.1875 32.9375 C-55.61435059 32.34461182 -55.04120117 31.75172363 -54.45068359 31.14086914 C-50.66232195 27.2710204 -46.73167597 23.79574341 -42.4375 20.5 C-41.82970703 20.02973389 -41.22191406 19.55946777 -40.59570312 19.07495117 C-38.79773318 17.68944836 -36.99325828 16.31282781 -35.1875 14.9375 C-34.24390625 14.21046875 -33.3003125 13.4834375 -32.328125 12.734375 C-27.37223622 9.01012722 -22.25634109 5.61512683 -16.9375 2.4375 C-15.81859375 1.7671875 -14.6996875 1.096875 -13.546875 0.40625 C-8.70282196 -1.71161505 -4.97700941 -1.65900314 0 0 Z " fill="#226CB4" transform="translate(174.1875,68.0625)"/>
<path d="M0 0 C28.88988105 11.28633443 56.04093449 38.49935245 74 63 C74.63035156 63.84691406 75.26070313 64.69382812 75.91015625 65.56640625 C87.63662713 81.78045597 109.81846449 113.41080162 106.65234375 134.29296875 C105.31345839 137.84138078 104.17425825 139.83403976 101.375 142.5 C97.04648626 144.42378389 93.66031474 144.80321403 89 144 C82.00705454 140.83338319 79.9589421 134.64372496 77.359375 127.84375 C76.8218186 126.39624065 76.28539771 124.94830919 75.75 123.5 C67.74083665 102.49954406 56.36983635 81.11094602 40.17578125 65.23046875 C38 63 38 63 38 61 C37.34 61 36.68 61 36 61 C34.27278751 59.37148537 32.63341671 57.71925734 31 56 C26.30506571 51.09155709 21.41138476 46.72927788 16 42.625 C15.26595947 42.06554687 14.53191895 41.50609375 13.77563477 40.9296875 C6.03447978 35.12610908 -2.15843424 30.24920674 -10.60546875 25.55078125 C-15.05226753 22.98313969 -17.41523574 20.9523883 -19 16 C-19.54016234 11.6787013 -19.3251256 9.60380468 -17.25 5.75 C-12.20813712 -0.41227686 -7.77350709 -1.54367517 0 0 Z " fill="#226CB4" transform="translate(341,63)"/>
<path d="M0 0 C4.29721309 1.73717125 5.95715527 3.90680796 8 8 C8.38818359 11.09594727 8.38818359 11.09594727 8.3984375 14.56640625 C8.40464111 15.84660645 8.41084473 17.12680664 8.41723633 18.44580078 C8.40499915 19.81805151 8.39088107 21.1902866 8.375 22.5625 C8.37067963 23.25873474 8.36635925 23.95496948 8.36190796 24.67230225 C8.27697299 36.33234907 7.39996318 47.57655322 5 59 C4.75056641 60.24620117 4.75056641 60.24620117 4.49609375 61.51757812 C0.45470377 81.38026145 -6.30879869 100.20229183 -16 118 C-16.61359375 119.15371094 -17.2271875 120.30742187 -17.859375 121.49609375 C-35.60876369 153.80438185 -35.60876369 153.80438185 -46 159 C-50.92186834 159.53998915 -54.89412318 159.50267128 -59.4375 157.4375 C-62.58611387 154.44247705 -63.79720458 152.17440763 -65 148 C-64.86155631 140.10870956 -60.29390474 135.3100333 -55.5 129.4375 C-32.80805601 100.51094119 -19.27619819 61.89667845 -18.89453125 25.140625 C-18.87229492 23.68462891 -18.87229492 23.68462891 -18.84960938 22.19921875 C-18.82467507 20.21759794 -18.81977382 18.23563298 -18.83398438 16.25390625 C-18.69847644 10.1026672 -17.83778405 6.67666337 -13.47924805 2.23339844 C-9.5650869 -1.03023287 -4.84695821 -0.42047745 0 0 Z " fill="#226CB4" transform="translate(448,231)"/>
<path d="M0 0 C6.51788242 3.82659856 8.48860291 8.72601057 10.4375 15.75 C11.01791546 17.64012986 11.60529175 19.52813469 12.19921875 21.4140625 C12.49489746 22.35540039 12.79057617 23.29673828 13.09521484 24.26660156 C19.08125224 42.35070159 28.91279597 59.67183895 41.00390625 74.3359375 C44.71077859 79.28327006 45.38999995 82.85864743 44.54296875 88.84765625 C43.55844877 92.7503218 41.3921014 94.95592395 38.25 97.3125 C33.33807972 98.81336453 29.47205738 98.7210077 24.9375 96.5 C5.42438898 79.89309701 -6.75323684 51.68252494 -15 28 C-15.35835938 27.01644531 -15.71671875 26.03289062 -16.0859375 25.01953125 C-18.30714787 18.44760149 -19.47566567 11.65033087 -16.8125 5.0625 C-12.31389518 -0.05660204 -6.64042478 -1.70341331 0 0 Z " fill="#226CB4" transform="translate(82,291)"/>
</svg>
