<?xml version="1.0" encoding="utf-8"?>
<!-- Generator: Adobe Illustrator 23.0.4, SVG Export Plug-In . SVG Version: 6.00 Build 0)  -->
<svg version="1.1" id="Layer_1" xmlns="http://www.w3.org/2000/svg" xmlns:xlink="http://www.w3.org/1999/xlink" x="0px" y="0px"
	 viewBox="0 0 1024 1024" style="enable-background:new 0 0 1024 1024;" xml:space="preserve">
<style type="text/css">
	.st0{fill:#E42527;}
	.st1{fill:#F9B21D;}
	.st2{fill:#FFFFFF;}
</style>
<g>
	<g class="st3">
		<path class="st0" d="M752.53,1023H631.77c-49.53,0-89.82-40.3-89.82-89.82V782.62H90.82C41.3,782.62,1,742.32,1,692.8V90.82
			C1,41.3,41.3,1,90.82,1h661.71c72.25,0,140.17,28.13,191.25,79.22C994.87,131.3,1023,199.23,1023,271.47v481.06
			c0,72.25-28.13,140.17-79.22,191.25C892.7,994.87,824.77,1023,752.53,1023z M601.82,752.68v180.5c0,16.51,13.43,29.94,29.94,29.94
			h120.76c116.12,0,210.59-94.47,210.59-210.59v-311.4c-6.05,7.48-12.53,14.69-19.43,21.59c-51.09,51.08-119.01,79.22-191.25,79.22
			H631.77c-16.51,0-29.94,13.43-29.94,29.94V752.68z M90.82,60.88c-16.51,0-29.94,13.43-29.94,29.94V692.8
			c0,16.51,13.43,29.94,29.94,29.94h451.12V571.88c0-49.53,40.3-89.82,89.82-89.82h120.67c116.12,0,210.59-94.47,210.59-210.59
			S868.55,60.88,752.43,60.88H90.82z"/>
	</g>
	<g class="st3">
		<path class="st1" d="M752.53,401.22c-71.54,0-129.75-58.2-129.75-129.75s58.2-129.75,129.75-129.75s129.75,58.2,129.75,129.75
			S824.07,401.22,752.53,401.22z M752.53,201.61c-38.52,0-69.86,31.34-69.86,69.86s31.34,69.86,69.86,69.86s69.86-31.34,69.86-69.86
			S791.05,201.61,752.53,201.61z"/>
	</g>
	<g class="st3">
		<path class="st0" d="M389.88,240.51H210.42c-16.54,0-29.94-13.41-29.94-29.94s13.41-29.94,29.94-29.94h179.46
			c16.54,0,29.94,13.41,29.94,29.94S406.41,240.51,389.88,240.51z"/>
	</g>
	<g class="st3">
		<path class="st0" d="M330.09,360.14H210.42c-16.54,0-29.94-13.41-29.94-29.94s13.41-29.94,29.94-29.94h119.67
			c16.54,0,29.94,13.41,29.94,29.94S346.62,360.14,330.09,360.14z"/>
	</g>
</g>
</svg>
