<?xml version="1.0" encoding="utf-8"?>
<!-- Generator: Adobe Illustrator 23.0.6, SVG Export Plug-In . SVG Version: 6.00 Build 0)  -->
<svg version="1.1" id="Layer_1" xmlns="http://www.w3.org/2000/svg" xmlns:xlink="http://www.w3.org/1999/xlink" x="0px" y="0px"
	 viewBox="0 0 1024 1024" style="enable-background:new 0 0 1024 1024;" xml:space="preserve">
<style type="text/css">
	
	.st1{fill:#089949;}
</style>
<g>
	<g class="st0">
		<path class="st1" d="M584.6,870.3H90.8C41.3,870.3,1,830,1,780.5V91.2C1,41.7,41.3,1.4,90.8,1.4h690.4c49.5,0,89.8,40.3,89.8,89.8
			v492.7c0,16.5-13.4,29.9-29.9,29.9s-29.9-13.4-29.9-29.9V91.2c0-16.5-13.4-29.9-29.9-29.9H90.8c-16.5,0-29.9,13.4-29.9,29.9v689.3
			c0,16.5,13.4,29.9,29.9,29.9h493.9c16.5,0,29.9,13.4,29.9,29.9S601.2,870.3,584.6,870.3z"/>
	</g>
	<g class="st0">
		<path class="st1" d="M330,870.3c-16.5,0-29.9-13.4-29.9-29.9V150.9c0-16.5,13.4-29.9,29.9-29.9s29.9,13.4,29.9,29.9v689.5
			C360,856.9,346.6,870.3,330,870.3z"/>
	</g>
	<g class="st0">
		<path class="st1" d="M841.1,360.2H151.6c-16.5,0-29.9-13.4-29.9-29.9s13.4-29.9,29.9-29.9h689.5c16.5,0,29.9,13.4,29.9,29.9
			S857.7,360.2,841.1,360.2z"/>
	</g>
	<g class="st0">
		<path class="st1" d="M748,1022.6c-2.6,0-5.2-0.3-7.7-1c-10.3-2.8-18.4-10.8-21.2-21.2l-89.6-334.5c-2.8-10.3,0.2-21.4,7.7-28.9
			c7.6-7.6,18.6-10.5,28.9-7.7l334.6,89.6c10.3,2.8,18.4,10.8,21.2,21.2c2.8,10.3-0.2,21.4-7.7,28.9l-244.9,244.9
			C763.5,1019.5,755.8,1022.6,748,1022.6z M700.7,700.5l62.8,234.4l171.6-171.6L700.7,700.5z"/>
	</g>
</g>
</svg>
