<?xml version="1.0" encoding="utf-8"?>
<!-- Generator: Adobe Illustrator 22.0.1, SVG Export Plug-In . SVG Version: 6.00 Build 0)  -->
<svg version="1.1" id="Layer_1" xmlns="http://www.w3.org/2000/svg" xmlns:xlink="http://www.w3.org/1999/xlink" x="0px" y="0px"
	 viewBox="0 0 1024 1024" style="enable-background:new 0 0 1024 1024;" xml:space="preserve">
<style type="text/css">
	.st1{fill:#E42527;}
</style>
<g class="st0">
	<g>
		<path class="st1" d="M814.5,921.2c-16.6,0-30-13.4-30-30s13.4-30,30-30c16.5,0,29.9-13.4,29.9-29.9V252c0-16.6,13.4-30,30-30
			s30,13.4,30,30v579.3C904.4,880.9,864.1,921.2,814.5,921.2z"/>
	</g>
	<g>
		<path class="st1" d="M151.2,800.7c-16.6,0-30-13.4-30-30V192.5c0-49.6,40.3-89.9,89.9-89.9c16.6,0,30,13.4,30,30s-13.4,30-30,30
			c-16.5,0-29.9,13.4-29.9,29.9v578.2C181.2,787.3,167.8,800.7,151.2,800.7z"/>
	</g>
	<g>
		<path class="st1" d="M993,162.7H31c-16.6,0-30-13.4-30-30s13.4-30,30-30h962c16.6,0,30,13.4,30,30S1009.6,162.7,993,162.7z"/>
	</g>
	<g>
		<path class="st1" d="M993,921.4H31c-16.6,0-30-13.4-30-30s13.4-30,30-30h962c16.6,0,30,13.4,30,30S1009.6,921.4,993,921.4z"/>
	</g>
	<g>
		<path class="st1" d="M411.5,715.8c-5.2,0-10.4-1.3-15-4c-9.3-5.4-15-15.3-15-26V339.9c0-10.7,5.7-20.6,15-26
			c9.3-5.4,20.7-5.4,30,0l299.7,173c9.3,5.4,15,15.3,15,26c0,10.7-5.7,20.6-15,26L426.5,711.8C421.9,714.5,416.7,715.8,411.5,715.8z
			 M441.5,391.9v242l209.7-121L441.5,391.9z"/>
	</g>
</g>
</svg>
