<?xml version="1.0" encoding="utf-8"?>
<!-- Generator: Adobe Illustrator 23.0.3, SVG Export Plug-In . SVG Version: 6.00 Build 0)  -->
<svg version="1.1" id="Layer_1" xmlns="http://www.w3.org/2000/svg" xmlns:xlink="http://www.w3.org/1999/xlink" x="0px" y="0px"
	 viewBox="0 0 1024 1024" style="enable-background:new 0 0 1024 1024;" xml:space="preserve">
<style type="text/css">
	.st0{opacity:0.9;}
	.st1{fill:#236EB4;}
	.st2{opacity:0.9;fill:#F7B21B;}
</style>
<g>
	<g class="st0">
		<path class="st1" d="M691.93,241.22H272c-16.57,0-30-13.43-30-30s13.43-30,30-30h419.93c16.57,0,30,13.43,30,30
			S708.5,241.22,691.93,241.22z"/>
	</g>
	<g class="st0">
		<path class="st1" d="M571.19,391.21H272c-16.57,0-30-13.43-30-30s13.43-30,30-30h299.19c16.57,0,30,13.43,30,30
			S587.76,391.21,571.19,391.21z"/>
	</g>
	<g class="st0">
		<path class="st1" d="M832,1023H192c-71.68,0-130-58.32-130-130V131C62,59.32,120.32,1,192,1h640c71.68,0,130,58.32,130,130v507.52
			c0,16.57-13.43,30-30,30s-30-13.43-30-30V131c0-38.6-31.4-70-70-70H192c-38.6,0-70,31.4-70,70v762c0,38.6,31.4,70,70,70h640
			c38.6,0,70-31.4,70-70V787.82c0-16.57,13.43-30,30-30s30,13.43,30,30V893C962,964.68,903.68,1023,832,1023z"/>
	</g>
	<path class="st2" d="M950.22,614.68c-13.16-10.06-31.99-7.55-42.05,5.62c-0.25,0.33-25.91,33.44-58.97,60.09
		c-14.93,12.03-51.83,38.72-72.21,26.66c-23.11-13.67-42.41-21.71-61.47-16.5c-19.36,5.28-28.03,21-34.99,33.63
		c-5.5,9.98-11.74,21.29-24.38,33.23c-0.67,0.63-1.26,1.15-1.78,1.57c-5.97-6.78-14.15-24.99-17.95-40.75
		c-2.83-11.93-12.62-20.94-24.74-22.75c-12.12-1.82-24.13,3.92-30.33,14.5c-20.49,34.96-48.55,78.27-83.91,103.08
		c-3.58,2.51-10.31,6.28-15.21,3.31c-3.06-1.86-5.79-6.35-5.01-12.2c4.89-36.71,36.78-91.09,89.79-153.12
		c42.47-49.7,83.99-87.5,84.4-87.87c10.63-9.63,12.95-25.44,5.54-37.72c-7.4-12.28-22.47-17.61-35.94-12.7
		c-32.07,11.66-50.27,20.53-73.3,31.76c-19.38,9.45-41.35,20.16-78.66,36.05c-60.82,25.9-113.49,29.75-133.6,28.16
		c-1.23-0.15-2.49-0.24-3.76-0.24c-16.57,0-30,13.43-30,30c0,15.62,11.95,28.45,27.2,29.87l0,0.04c2.88,0.29,71.6,6.59,163.67-32.62
		c4.96-2.11,9.67-4.14,14.16-6.1c-53.02,65.21-82.92,121.17-88.97,166.57c-3.83,28.75,9.25,56.79,33.34,71.42
		c10.87,6.6,22.85,9.87,35.11,9.87c15.38,0,31.18-5.15,45.71-15.34c27.79-19.49,50.95-46.18,70.16-73.23
		c10.42,15.34,22.69,25.18,36.65,29.35c26.66,7.98,48.18-7.39,58.64-17.26c19.46-18.38,29.25-36.14,35.73-47.89
		c0.24-0.43,0.48-0.88,0.74-1.34c3.02,1.46,7.13,3.64,12.63,6.89c15.53,9.19,41.6,17.56,77.57,5.28
		c19.69-6.72,40.83-19.13,62.84-36.87c39.16-31.56,68.7-69.98,68.99-70.37C965.9,643.57,963.38,624.74,950.22,614.68z"/>
</g>
</svg>
