<?xml version="1.0" encoding="utf-8"?>
<!-- Generator: Adobe Illustrator 26.0.3, SVG Export Plug-In . SVG Version: 6.00 Build 0)  -->
<svg version="1.1" id="Layer_1" xmlns="http://www.w3.org/2000/svg" xmlns:xlink="http://www.w3.org/1999/xlink" x="0px" y="0px"
	 viewBox="0 0 1024 1024" style="enable-background:new 0 0 1024 1024;" xml:space="preserve">
<style type="text/css">
	.st0{fill:#E42527;}
	.st1{fill:#089949;}
	.st2{fill:#F9B21D;}
	.st3{fill:#226DB4;}
	.st4{fill:#FFFFFF;}
</style>
<g>
	<g>
		<path class="st0" d="M512,200c-55.1,0-100-44.9-100-100S456.9,0,512,0c55.1,0,100,44.9,100,100S567.1,200,512,200z M512,60
			c-22.1,0-40,17.9-40,40s17.9,40,40,40c22.1,0,40-17.9,40-40S534.1,60,512,60z"/>
	</g>
	<g>
		<path class="st1" d="M922.8,501.1c-55.2,0-100.2-44.9-100.2-100.2s44.9-100.2,100.2-100.2c55.2,0,100.2,44.9,100.2,100.2
			S978.1,501.1,922.8,501.1z M922.8,360.8c-22.1,0-40.2,18-40.2,40.2s18,40.2,40.2,40.2c22.1,0,40.2-18,40.2-40.2
			S945,360.8,922.8,360.8z"/>
	</g>
	<g>
		<path class="st3" d="M765.3,975.9c-55.2,0-100.2-44.9-100.2-100.2c0-55.2,44.9-100.2,100.2-100.2c55.2,0,100.2,44.9,100.2,100.2
			C865.5,931,820.6,975.9,765.3,975.9z M765.3,835.6c-22.1,0-40.2,18-40.2,40.2c0,22.1,18,40.2,40.2,40.2c22.1,0,40.2-18,40.2-40.2
			C805.5,853.6,787.5,835.6,765.3,835.6z"/>
	</g>
	<g>
		<path class="st2" d="M261,978c-55.2,0-100.2-44.9-100.2-100.2c0-55.2,44.9-100.2,100.2-100.2s100.2,44.9,100.2,100.2
			C361.1,933.1,316.2,978,261,978z M261,837.7c-22.1,0-40.2,18-40.2,40.2c0,22.1,18,40.2,40.2,40.2s40.2-18,40.2-40.2
			C301.1,855.7,283.1,837.7,261,837.7z"/>
	</g>
	<g>
		<path class="st3" d="M101.2,500.6C45.9,500.6,1,455.7,1,400.5s44.9-100.2,100.2-100.2s100.2,44.9,100.2,100.2
			S156.4,500.6,101.2,500.6z M101.2,360.3c-22.1,0-40.2,18-40.2,40.2s18,40.2,40.2,40.2s40.2-18,40.2-40.2S123.3,360.3,101.2,360.3z
			"/>
	</g>
	<g>
		<path class="st3" d="M181.4,609.8c-8.5,0-17-3.6-22.9-10.6c-10.7-12.7-9.1-31.6,3.6-42.3l120.2-101.6l-72.2-293.6
			c-4-16.1,5.9-32.3,22-36.3c16.1-4,32.3,5.9,36.3,22L345,459c2.7,11.1-1.1,22.7-9.8,30.1L200.7,602.7
			C195.1,607.4,188.2,609.8,181.4,609.8z"/>
	</g>
	<g>
		<path class="st2" d="M457,889.1c-11.8,0-23-7-27.8-18.7l-59.2-145L68.4,703.2c-16.5-1.2-28.9-15.6-27.7-32.1
			c1.2-16.5,15.6-28.9,32.1-27.7L393,666.9c11.4,0.8,21.3,8,25.6,18.6l66.2,162.3c6.3,15.3-1.1,32.9-16.4,39.1
			C464.6,888.3,460.7,889.1,457,889.1z"/>
	</g>
	<g>
		<path class="st3" d="M512,1024c-3.8,0-7.6-0.7-11.3-2.2c-15.3-6.3-22.7-23.8-16.4-39.1l121.2-297.2c4.3-10.6,14.2-17.8,25.6-18.6
			l174.3-12.8c16.5-1.2,30.9,11.2,32.1,27.7s-11.2,30.9-27.7,32.1L654,725.3l-114.2,280C535,1017,523.8,1024,512,1024z"/>
	</g>
	<g>
		<path class="st1" d="M953.4,703.3c-6.8,0-13.7-2.3-19.3-7.1L688.8,489.1c-8.7-7.4-12.5-19-9.8-30.1l41.9-170.5
			c4-16.1,20.2-25.9,36.3-22c16.1,4,25.9,20.2,22,36.3l-37.5,152.4l231,195.1c12.7,10.7,14.2,29.6,3.6,42.3
			C970.4,699.7,961.9,703.3,953.4,703.3z"/>
	</g>
	<g>
		<path class="st0" d="M512,353.6c-5.5,0-11-1.5-15.8-4.5L347.6,257c-14.1-8.7-18.4-27.2-9.7-41.3c8.7-14.1,27.2-18.4,41.3-9.7
			L512,288.3L769,129c14.1-8.7,32.6-4.4,41.3,9.7s4.4,32.6-9.7,41.3L527.8,349.1C523,352.1,517.5,353.6,512,353.6z"/>
	</g>
</g>
</svg>
