<svg id="Layer_1" data-name="Layer 1" xmlns="http://www.w3.org/2000/svg" viewBox="0 0 1024 1024"><defs><style>.cls-1{fill:#226db4;}</style></defs><path class="cls-1" d="M505.51,1017a89.71,89.71,0,0,1-63.64-26.32l-415-415a90.1,90.1,0,0,1,0-127.28l415-415a90.1,90.1,0,0,1,127.28,0l91.3,91.3A30,30,0,0,1,618,167.08l-91.31-91.3a30,30,0,0,0-42.42,0l-415,415a30,30,0,0,0,0,42.42l415,415a30,30,0,0,0,42.42,0l415-415a30,30,0,0,0,0-42.42l-87.24-87.25a30,30,0,0,1,0-42.42l96.62-96.62L843.45,156.91,526.72,473.63a30,30,0,0,1-42.42,0l-71.06-71.06L303.79,512l199.9,199.89L767.77,447.83a30,30,0,1,1,42.43,42.43L524.9,775.55a30,30,0,0,1-42.42,0L240.15,533.23a30,30,0,0,1,0-42.43L392,338.93a30,30,0,0,1,42.43,0L505.51,410,822.23,93.28a30,30,0,0,1,42.42,0l150.1,150a30,30,0,0,1,0,42.43l-96.63,96.63,66,66a90.1,90.1,0,0,1,0,127.28l-415,415A89.71,89.71,0,0,1,505.51,1017Z"/></svg>