<?xml version="1.0" encoding="utf-8"?>
<!-- Generator: Adobe Illustrator 22.1.0, SVG Export Plug-In . SVG Version: 6.00 Build 0)  -->
<svg version="1.1" id="Layer_1" xmlns="http://www.w3.org/2000/svg" xmlns:xlink="http://www.w3.org/1999/xlink" x="0px" y="0px"
	 viewBox="0 0 1024 1024" style="enable-background:new 0 0 1024 1024;" xml:space="preserve">
<style type="text/css">
	.st0{opacity:0.9;}
	.st1{fill:#E42528;}
</style>
<g>
	<g class="st0">
		<path class="st1" d="M526.6,607.4c2.5-1.4,62.9-35.3,123.8-92.8c36.3-34.2,65.3-69.8,86.3-105.8c27.1-46.5,40.9-93.9,40.9-140.7
			c0-71.1-27.6-137.9-77.8-188.2C649.7,29.7,583,2,512,2S374.3,29.7,324.1,80c-50.2,50.3-77.8,117.1-77.8,188.2
			c0,16.6,13.4,30,30,30H512c16.6,0,30-13.4,30-30s-13.4-30-30-30H308.5C323.1,138.6,408.8,62,512,62
			c113.4,0,205.6,92.5,205.6,206.1c0,137-156.5,246.9-205.7,278c-36.3-23-131-88.8-178.2-177c-7.8-14.6-26-20.1-40.6-12.3
			s-20.1,26-12.3,40.6c67.3,125.8,210.4,206.6,216.5,210L512,616L526.6,607.4z"/>
	</g>
	<g class="st0">
		<path class="st1" d="M526.7,555.1c3.3,1.8,81.1,45.8,159.9,120.4c46.8,44.3,84.1,90.3,111.1,136.7
			c34.6,59.6,52.1,120.1,52.1,179.8c0,16.6-13.4,30-30,30s-30-13.4-30-30c0-48.8-14.7-99-43.7-149.1c-23.9-41.4-57.5-82.7-99.9-123
			c-54-51.3-108.8-87.8-134.2-103.7c-25.4,15.8-80.2,52.3-134.2,103.7c-42.4,40.3-76,81.6-99.9,123c-23.1,39.9-37.1,79.8-41.9,119.1
			h276c16.6,0,30,13.4,30,30s-13.4,30-30,30H204.2c-16.6,0-30-13.4-30-30c0-59.7,17.5-120.2,52.1-179.8
			c27-46.4,64.4-92.4,111.1-136.7c78.8-74.6,156.6-118.5,159.9-120.4L512,546L526.7,555.1z"/>
	</g>
</g>
</svg>
