<?xml version="1.0" encoding="utf-8"?>
<!-- Generator: Adobe Illustrator 23.0.6, SVG Export Plug-In . SVG Version: 6.00 Build 0)  -->
<svg version="1.1" id="Layer_1" xmlns="http://www.w3.org/2000/svg" xmlns:xlink="http://www.w3.org/1999/xlink" x="0px" y="0px"
	 viewBox="0 0 1024 1024" style="enable-background:new 0 0 1024 1024;" xml:space="preserve">
<style type="text/css">
	.st1{fill:#226DB4;}
</style>
<g class="st0">
	<path class="st1" d="M904.8,942H299.9c-16.6,0-30-13.4-30-30s13.4-30,30-30h604.9c32.7,0,59.2-26.6,59.2-59.2V301.2
		c0-32.7-26.6-59.2-59.2-59.2H523.6c-25.5,0-50.9-8.4-71.3-23.7l-86.5-64.6c-10.2-7.6-22.7-11.8-35.4-11.8H119.2
		C86.6,142,60,168.6,60,201.2v621.6c0,32.7,26.6,59.2,59.2,59.2h59.7c16.6,0,30,13.4,30,30s-13.4,30-30,30h-59.7
		C53.5,942,0,888.5,0,822.8V201.2C0,135.5,53.5,82,119.2,82h211.2c25.5,0,50.9,8.4,71.3,23.7l86.5,64.6
		c10.2,7.6,22.7,11.8,35.4,11.8h381.2c65.7,0,119.2,53.5,119.2,119.2v521.6C1024,888.5,970.5,942,904.8,942z"/>
</g>
<g class="st0">
	<g>
		<path class="st1" d="M299.9,942c-16.6,0-30-13.4-30-30v-67.9c0-31.3,9.4-61.4,27.3-87.1c17.9-25.7,42.8-45,72.2-55.8l105.5-39.1
			c15.5-5.8,32.8,2.2,38.6,17.7s-2.2,32.8-17.7,38.6l-105.5,39.1c-36.1,13.4-60.3,48.2-60.3,86.6V912
			C329.9,928.6,316.4,942,299.9,942z"/>
	</g>
	<g>
		<path class="st1" d="M464.3,724c-49.6,0-90-40.4-90-90s40.4-90,90-90s90,40.4,90,90S513.9,724,464.3,724z M464.3,604
			c-16.5,0-30,13.5-30,30s13.5,30,30,30s30-13.5,30-30S480.8,604,464.3,604z"/>
	</g>
</g>
<g class="st0">
	<g>
		<path class="st1" d="M506.1,942c-16.6,0-30-13.4-30-30V768.8c0-31.3,9.4-61.4,27.3-87.1c17.9-25.7,42.8-45,72.2-55.8l96.2-35.6
			c15.5-5.8,32.8,2.2,38.6,17.7s-2.2,32.8-17.7,38.6l-96.2,35.6c-36.1,13.4-60.3,48.2-60.3,86.6V912
			C536.1,928.6,522.7,942,506.1,942z"/>
	</g>
	<g>
		<path class="st1" d="M661,652c-52.4,0-95-42.6-95-95s42.6-95,95-95s95,42.6,95,95S713.4,652,661,652z M661,522
			c-19.3,0-35,15.7-35,35s15.7,35,35,35s35-15.7,35-35S680.3,522,661,522z"/>
	</g>
</g>
<g class="st0">
	<g>
		<path class="st1" d="M710.6,942c-16.6,0-30-13.4-30-30V686.7c0-29.3,8.8-57.4,25.6-81.4c16.7-24,40.1-42.1,67.5-52.2l104.5-38.7
			c15.5-5.8,32.8,2.2,38.6,17.7s-2.2,32.8-17.7,38.6l-104.5,38.7c-32.2,11.9-53.9,43-53.9,77.4V912C740.6,928.6,727.1,942,710.6,942
			z"/>
	</g>
	<g>
		<path class="st1" d="M866,576.1c-54.1,0-98.1-44-98.1-98.1s44-98.1,98.1-98.1s98.1,44,98.1,98.1C964.1,532,920.1,576.1,866,576.1z
			 M866,439.8c-21,0-38.1,17.1-38.1,38.1S845,516,866,516s38.1-17.1,38.1-38.1S887,439.8,866,439.8z"/>
	</g>
</g>
</svg>
